%TF.GenerationSoftware,KiCad,Pcbnew,9.0.0*%
%TF.CreationDate,2025-03-04T22:53:12-07:00*%
%TF.ProjectId,XIAO ESP32 C6,5849414f-2045-4535-9033-322043362e6b,rev?*%
%TF.SameCoordinates,Original*%
%TF.FileFunction,Copper,L1,Top*%
%TF.FilePolarity,Positive*%
%FSLAX46Y46*%
G04 Gerber Fmt 4.6, Leading zero omitted, Abs format (unit mm)*
G04 Created by KiCad (PCBNEW 9.0.0) date 2025-03-04 22:53:12*
%MOMM*%
%LPD*%
G01*
G04 APERTURE LIST*
G04 Aperture macros list*
%AMRoundRect*
0 Rectangle with rounded corners*
0 $1 Rounding radius*
0 $2 $3 $4 $5 $6 $7 $8 $9 X,Y pos of 4 corners*
0 Add a 4 corners polygon primitive as box body*
4,1,4,$2,$3,$4,$5,$6,$7,$8,$9,$2,$3,0*
0 Add four circle primitives for the rounded corners*
1,1,$1+$1,$2,$3*
1,1,$1+$1,$4,$5*
1,1,$1+$1,$6,$7*
1,1,$1+$1,$8,$9*
0 Add four rect primitives between the rounded corners*
20,1,$1+$1,$2,$3,$4,$5,0*
20,1,$1+$1,$4,$5,$6,$7,0*
20,1,$1+$1,$6,$7,$8,$9,0*
20,1,$1+$1,$8,$9,$2,$3,0*%
G04 Aperture macros list end*
%TA.AperFunction,Conductor*%
%ADD10C,0.200000*%
%TD*%
%TA.AperFunction,ConnectorPad*%
%ADD11C,3.500000*%
%TD*%
%TA.AperFunction,ComponentPad*%
%ADD12C,2.600000*%
%TD*%
%TA.AperFunction,SMDPad,CuDef*%
%ADD13RoundRect,0.250000X-0.450000X0.350000X-0.450000X-0.350000X0.450000X-0.350000X0.450000X0.350000X0*%
%TD*%
%TA.AperFunction,SMDPad,CuDef*%
%ADD14RoundRect,0.250000X-0.350000X-0.450000X0.350000X-0.450000X0.350000X0.450000X-0.350000X0.450000X0*%
%TD*%
%TA.AperFunction,SMDPad,CuDef*%
%ADD15RoundRect,0.250000X0.350000X0.450000X-0.350000X0.450000X-0.350000X-0.450000X0.350000X-0.450000X0*%
%TD*%
%TA.AperFunction,ComponentPad*%
%ADD16R,1.508000X1.508000*%
%TD*%
%TA.AperFunction,ComponentPad*%
%ADD17C,3.000000*%
%TD*%
%TA.AperFunction,ComponentPad*%
%ADD18C,1.508000*%
%TD*%
%TA.AperFunction,SMDPad,CuDef*%
%ADD19R,1.100000X1.800000*%
%TD*%
%TA.AperFunction,SMDPad,CuDef*%
%ADD20C,1.500000*%
%TD*%
%TA.AperFunction,SMDPad,CuDef*%
%ADD21R,1.100000X0.900000*%
%TD*%
%TA.AperFunction,SMDPad,CuDef*%
%ADD22R,0.700000X1.700000*%
%TD*%
%TA.AperFunction,SMDPad,CuDef*%
%ADD23C,1.700000*%
%TD*%
%TA.AperFunction,SMDPad,CuDef*%
%ADD24RoundRect,0.275000X0.275000X-0.975000X0.275000X0.975000X-0.275000X0.975000X-0.275000X-0.975000X0*%
%TD*%
%TA.AperFunction,SMDPad,CuDef*%
%ADD25RoundRect,0.500000X0.875000X0.500000X-0.875000X0.500000X-0.875000X-0.500000X0.875000X-0.500000X0*%
%TD*%
%TA.AperFunction,SMDPad,CuDef*%
%ADD26R,1.500000X1.500000*%
%TD*%
%TA.AperFunction,Conductor*%
%ADD27C,0.800000*%
%TD*%
G04 APERTURE END LIST*
D10*
%TO.N,GND*%
X98000000Y-96000000D02*
G75*
G02*
X96000000Y-94000000I0J2000000D01*
G01*
X136000000Y-94000000D02*
G75*
G02*
X134000000Y-96000000I-2000000J0D01*
G01*
X96000000Y-64000000D02*
G75*
G02*
X98000000Y-62000000I2000000J0D01*
G01*
X134000000Y-62000000D02*
G75*
G02*
X136000000Y-64000000I0J-2000000D01*
G01*
X96000000Y-94000000D02*
X96000000Y-64000000D01*
X136000000Y-64000000D02*
X136000000Y-94000000D01*
X134000000Y-96000000D02*
X98000000Y-96000000D01*
X98000000Y-62000000D02*
X134000000Y-62000000D01*
%TD*%
D11*
%TO.P,REF\u002A\u002A,1*%
%TO.N,N/C*%
X134000000Y-64000000D03*
D12*
X134000000Y-64000000D03*
%TD*%
D11*
%TO.P,REF\u002A\u002A,1*%
%TO.N,N/C*%
X134000000Y-94000000D03*
D12*
X134000000Y-94000000D03*
%TD*%
D11*
%TO.P,REF\u002A\u002A,1*%
%TO.N,N/C*%
X98000000Y-94000000D03*
D12*
X98000000Y-94000000D03*
%TD*%
D11*
%TO.P,REF\u002A\u002A,1*%
%TO.N,N/C*%
X98000000Y-64000000D03*
D12*
X98000000Y-64000000D03*
%TD*%
D13*
%TO.P,R9,1*%
%TO.N,SPK*%
X127508000Y-79010000D03*
%TO.P,R9,2*%
%TO.N,Net-(J4-Pin_1)*%
X127508000Y-81010000D03*
%TD*%
D14*
%TO.P,R1,2*%
%TO.N,GND*%
X128492000Y-93218000D03*
%TO.P,R1,1*%
%TO.N,DIV_BATT*%
X126492000Y-93218000D03*
%TD*%
D15*
%TO.P,R4,2*%
%TO.N,GND*%
X103458000Y-93218000D03*
%TO.P,R4,1*%
%TO.N,DIV_CHARGE*%
X105458000Y-93218000D03*
%TD*%
D14*
%TO.P,R2,1*%
%TO.N,+BATT_SW*%
X122492000Y-93218000D03*
%TO.P,R2,2*%
%TO.N,DIV_BATT*%
X124492000Y-93218000D03*
%TD*%
D16*
%TO.P,U2,1,GND*%
%TO.N,GND*%
X119810000Y-67500000D03*
D17*
%TO.P,U2,S4*%
%TO.N,N/C*%
X127000000Y-90000000D03*
%TO.P,U2,S3*%
X105000000Y-90000000D03*
%TO.P,U2,S2*%
X105000000Y-68000000D03*
%TO.P,U2,S1*%
X127000000Y-68000000D03*
D18*
%TO.P,U2,4,SDA*%
%TO.N,SDA*%
X112190000Y-67500000D03*
%TO.P,U2,3,SCL*%
%TO.N,SCL*%
X114730000Y-67500000D03*
%TO.P,U2,2,VCC_IN*%
%TO.N,+3V3*%
X117270000Y-67500000D03*
%TD*%
D15*
%TO.P,R3,2*%
%TO.N,DIV_CHARGE*%
X107458000Y-93218000D03*
%TO.P,R3,1*%
%TO.N,+5V*%
X109458000Y-93218000D03*
%TD*%
D19*
%TO.P,S3,4,4*%
%TO.N,GND*%
X97650000Y-74100000D03*
%TO.P,S3,1,1*%
%TO.N,PB3*%
X101350000Y-67900000D03*
%TO.P,S3,2,2*%
%TO.N,unconnected-(S3-Pad2)*%
X101350000Y-74100000D03*
%TO.P,S3,3,3*%
%TO.N,unconnected-(S3-Pad3)*%
X97650000Y-67900000D03*
%TD*%
D20*
%TO.P,J4,1,Pin_1*%
%TO.N,Net-(J4-Pin_1)*%
X127508000Y-83312000D03*
%TD*%
D21*
%TO.P,SW1,5,5*%
%TO.N,GND*%
X121151900Y-64936500D03*
%TO.P,SW1,6,6*%
X126752100Y-64936500D03*
%TO.P,SW1,4,4*%
X121151900Y-62736700D03*
%TO.P,SW1,7,7*%
X126752100Y-62736700D03*
D22*
%TO.P,SW1,1,1*%
%TO.N,+BATT_SW*%
X124952000Y-65787400D03*
%TO.P,SW1,2,2*%
%TO.N,+BATT*%
X123952000Y-65787400D03*
%TO.P,SW1,3,3*%
X122952000Y-65787400D03*
%TD*%
D20*
%TO.P,J2,1,Pin_1*%
%TO.N,+BATT*%
X118104000Y-63754000D03*
%TD*%
D23*
%TO.P,U1,20,GND*%
%TO.N,GND*%
X114960000Y-85080000D03*
D24*
%TO.P,U1,16,GND*%
X115468000Y-73446800D03*
D25*
%TO.P,U1,13,GND*%
X108116600Y-84058500D03*
%TO.P,U1,1,GPIO0_A0_D0*%
%TO.N,DIV_BATT*%
X124281600Y-86598500D03*
%TO.P,U1,2,GPIO1_A1_D1*%
%TO.N,unconnected-(U1-GPIO1_A1_D1-Pad2)*%
X124281600Y-84058500D03*
%TO.P,U1,3,GPIO2_A2_D2*%
%TO.N,unconnected-(U1-GPIO2_A2_D2-Pad3)*%
X124281600Y-81518500D03*
%TO.P,U1,4,GPIO21_D3*%
%TO.N,SPK*%
X124281600Y-78978500D03*
%TO.P,U1,5,GPIO22_D4_SDA*%
%TO.N,unconnected-(U1-GPIO22_D4_SDA-Pad5)*%
X124281600Y-76438500D03*
%TO.P,U1,6,GPIO23_D5_SCL*%
%TO.N,PB2*%
X124281600Y-73898500D03*
%TO.P,U1,7,GPIO16_D6_TX*%
%TO.N,PB1*%
X124281600Y-71358500D03*
%TO.P,U1,8,GPIO17_D7_RX*%
%TO.N,PB3*%
X108116600Y-71358500D03*
%TO.P,U1,9,GPIO19_D8_SCK*%
%TO.N,PB4*%
X108116600Y-73898500D03*
%TO.P,U1,10,GPIO20_D9_MISO*%
%TO.N,unconnected-(U1-GPIO20_D9_MISO-Pad10)*%
X108116600Y-76438500D03*
%TO.P,U1,11,GPIO18_D10_MOSI*%
%TO.N,unconnected-(U1-GPIO18_D10_MOSI-Pad11)*%
X108116600Y-78978500D03*
%TO.P,U1,12,3V3*%
%TO.N,+3V3*%
X108116600Y-81518500D03*
%TO.P,U1,14,5V*%
%TO.N,+5V*%
X108116600Y-86598500D03*
D24*
%TO.P,U1,15,BAT*%
%TO.N,+BATT_SW*%
X118008000Y-73446800D03*
D23*
%TO.P,U1,17,MTDI*%
%TO.N,DIV_CHARGE*%
X117500000Y-87620000D03*
%TO.P,U1,18,MTDO*%
%TO.N,SCL*%
X114960000Y-87620000D03*
%TO.P,U1,19,CHIP_EN*%
%TO.N,unconnected-(U1-CHIP_EN-Pad19)*%
X117500000Y-85080000D03*
%TO.P,U1,21,MTMS*%
%TO.N,unconnected-(U1-MTMS-Pad21)*%
X117500000Y-82540000D03*
%TO.P,U1,22,MTCK*%
%TO.N,SDA*%
X114960000Y-82540000D03*
%TO.P,U1,23,BOOT*%
%TO.N,unconnected-(U1-BOOT-Pad23)*%
X117500000Y-80000000D03*
%TO.P,U1,24,3V3_1*%
%TO.N,+3V3*%
X115052600Y-80056800D03*
%TD*%
D26*
%TO.P,J1,1,Pin_1*%
%TO.N,GND*%
X114554000Y-63754000D03*
%TD*%
D19*
%TO.P,S1,1,1*%
%TO.N,PB1*%
X134350000Y-67900000D03*
%TO.P,S1,2,2*%
%TO.N,unconnected-(S1-Pad2)*%
X134350000Y-74100000D03*
%TO.P,S1,3,3*%
%TO.N,unconnected-(S1-Pad3)*%
X130650000Y-67900000D03*
%TO.P,S1,4,4*%
%TO.N,GND*%
X130650000Y-74100000D03*
%TD*%
D14*
%TO.P,R5,1*%
%TO.N,PB2*%
X131334000Y-81026000D03*
%TO.P,R5,2*%
%TO.N,+3V3*%
X133334000Y-81026000D03*
%TD*%
D15*
%TO.P,R7,1*%
%TO.N,PB3*%
X100822000Y-76962000D03*
%TO.P,R7,2*%
%TO.N,+3V3*%
X98822000Y-76962000D03*
%TD*%
D19*
%TO.P,S2,2,2*%
%TO.N,GND*%
X134350000Y-90100000D03*
%TO.P,S2,1,1*%
%TO.N,unconnected-(S2-Pad1)*%
X134350000Y-83900000D03*
%TO.P,S2,3,3*%
%TO.N,PB2*%
X130650000Y-83900000D03*
%TO.P,S2,4,4*%
%TO.N,unconnected-(S2-Pad4)*%
X130650000Y-90100000D03*
%TD*%
D15*
%TO.P,R8,1*%
%TO.N,PB4*%
X100822000Y-81026000D03*
%TO.P,R8,2*%
%TO.N,+3V3*%
X98822000Y-81026000D03*
%TD*%
D26*
%TO.P,J3,1,Pin_1*%
%TO.N,GND*%
X127508000Y-86868000D03*
%TD*%
D19*
%TO.P,S4,4,4*%
%TO.N,GND*%
X97650000Y-90100000D03*
%TO.P,S4,1,1*%
%TO.N,PB4*%
X101350000Y-83900000D03*
%TO.P,S4,2,2*%
%TO.N,unconnected-(S4-Pad2)*%
X101350000Y-90100000D03*
%TO.P,S4,3,3*%
%TO.N,unconnected-(S4-Pad3)*%
X97650000Y-83900000D03*
%TD*%
D14*
%TO.P,R6,1*%
%TO.N,PB1*%
X131334000Y-76962000D03*
%TO.P,R6,2*%
%TO.N,+3V3*%
X133334000Y-76962000D03*
%TD*%
D27*
%TO.N,PB2*%
X124952500Y-73898500D02*
X124281600Y-73898500D01*
X130650000Y-79596000D02*
X124952500Y-73898500D01*
X130650000Y-81026000D02*
X130650000Y-79596000D01*
%TO.N,+3V3*%
X133334000Y-82058000D02*
X133334000Y-81026000D01*
X133096000Y-82296000D02*
X133334000Y-82058000D01*
X129201424Y-94519000D02*
X133096000Y-90624424D01*
X119126000Y-91862424D02*
X121782576Y-94519000D01*
X119126000Y-79502000D02*
X119126000Y-91862424D01*
X116586000Y-78486000D02*
X118110000Y-78486000D01*
X121782576Y-94519000D02*
X129201424Y-94519000D01*
X118110000Y-78486000D02*
X119126000Y-79502000D01*
X115052600Y-80019400D02*
X116586000Y-78486000D01*
X115052600Y-80056800D02*
X115052600Y-80019400D01*
X133096000Y-90624424D02*
X133096000Y-82296000D01*
%TO.N,SCL*%
X110835000Y-79830628D02*
X110835000Y-66938740D01*
X110835000Y-66938740D02*
X111628740Y-66145000D01*
X113509000Y-85950000D02*
X113509000Y-82504628D01*
X114960000Y-87401000D02*
X113509000Y-85950000D01*
X113509000Y-82504628D02*
X110835000Y-79830628D01*
X114960000Y-87620000D02*
X114960000Y-87401000D01*
X111628740Y-66145000D02*
X113375000Y-66145000D01*
X113375000Y-66145000D02*
X114730000Y-67500000D01*
%TO.N,+BATT_SW*%
X121920000Y-92456000D02*
X121920000Y-70104000D01*
X121920000Y-70104000D02*
X120904000Y-71120000D01*
X122492000Y-93028000D02*
X121920000Y-92456000D01*
X122492000Y-93218000D02*
X122492000Y-93028000D01*
%TO.N,+3V3*%
X113792000Y-70978000D02*
X113792000Y-78796200D01*
X113792000Y-78796200D02*
X115052600Y-80056800D01*
X117270000Y-67500000D02*
X113792000Y-70978000D01*
%TO.N,SDA*%
X111836000Y-67854000D02*
X112190000Y-67500000D01*
X111836000Y-79416000D02*
X111836000Y-67854000D01*
X114960000Y-82540000D02*
X111836000Y-79416000D01*
%TO.N,SPK*%
X124281600Y-78978500D02*
X127476500Y-78978500D01*
X127476500Y-78978500D02*
X127508000Y-79010000D01*
%TO.N,DIV_CHARGE*%
X107458000Y-93918000D02*
X107458000Y-93218000D01*
X108059000Y-94519000D02*
X107458000Y-93918000D01*
X117500000Y-89002000D02*
X111983000Y-94519000D01*
X111983000Y-94519000D02*
X108059000Y-94519000D01*
X117500000Y-87620000D02*
X117500000Y-89002000D01*
%TO.N,Net-(J4-Pin_1)*%
X127508000Y-83312000D02*
X127508000Y-81010000D01*
%TO.N,PB4*%
X100822000Y-79518000D02*
X106441500Y-73898500D01*
X100822000Y-81026000D02*
X100822000Y-79518000D01*
X101350000Y-81554000D02*
X100822000Y-81026000D01*
X101350000Y-83900000D02*
X101350000Y-81554000D01*
%TO.N,+3V3*%
X98822000Y-81026000D02*
X98822000Y-76962000D01*
X100330000Y-86106000D02*
X98806000Y-84582000D01*
X102362000Y-86106000D02*
X100330000Y-86106000D01*
X98806000Y-84582000D02*
X98806000Y-81264000D01*
X108116600Y-81518500D02*
X106949500Y-81518500D01*
X106949500Y-81518500D02*
X102362000Y-86106000D01*
%TO.N,PB1*%
X132842000Y-72390000D02*
X131826000Y-71374000D01*
%TO.N,+5V*%
X109728000Y-88209900D02*
X108116600Y-86598500D01*
X109728000Y-92948000D02*
X109728000Y-88209900D01*
X109458000Y-93218000D02*
X109728000Y-92948000D01*
%TO.N,+BATT_SW*%
X120904000Y-71120000D02*
X124952000Y-67072000D01*
X124952000Y-67072000D02*
X124952000Y-66041400D01*
X118577200Y-73446800D02*
X120904000Y-71120000D01*
X118008000Y-73446800D02*
X118577200Y-73446800D01*
%TO.N,PB2*%
X130650000Y-83900000D02*
X130650000Y-81026000D01*
X131334000Y-81026000D02*
X130650000Y-81026000D01*
%TO.N,+3V3*%
X133334000Y-76962000D02*
X133334000Y-81026000D01*
%TO.N,PB4*%
X106441500Y-73898500D02*
X104394000Y-75946000D01*
X108116600Y-73898500D02*
X106441500Y-73898500D01*
X106156100Y-74183900D02*
X104394000Y-75946000D01*
%TO.N,+BATT*%
X120337500Y-65987500D02*
X118104000Y-63754000D01*
X121666000Y-65987500D02*
X120337500Y-65987500D01*
%TO.N,DIV_BATT*%
X124492000Y-93218000D02*
X124492000Y-86034900D01*
%TO.N,PB1*%
X131826000Y-71374000D02*
X126257600Y-71374000D01*
X126242100Y-71358500D02*
X124281600Y-71358500D01*
X126257600Y-71374000D02*
X126242100Y-71358500D01*
X126257600Y-71374000D02*
X126746000Y-71374000D01*
%TO.N,DIV_BATT*%
X126492000Y-93218000D02*
X124492000Y-93218000D01*
%TO.N,DIV_CHARGE*%
X105458000Y-93218000D02*
X107458000Y-93218000D01*
%TO.N,DIV_BATT*%
X124500000Y-86816900D02*
X124281600Y-86598500D01*
%TO.N,+BATT*%
X123952000Y-66041400D02*
X122952000Y-66041400D01*
X122751900Y-65987500D02*
X121666000Y-65987500D01*
X122952000Y-65787400D02*
X122751900Y-65987500D01*
X123952000Y-65787400D02*
X123751900Y-65987500D01*
X123751900Y-65987500D02*
X121666000Y-65987500D01*
%TO.N,PB1*%
X132842000Y-69408000D02*
X134350000Y-67900000D01*
X132842000Y-71374000D02*
X132842000Y-71120000D01*
X132842000Y-71120000D02*
X132842000Y-69408000D01*
X132842000Y-74422000D02*
X132842000Y-71374000D01*
X131334000Y-75930000D02*
X132842000Y-74422000D01*
X131334000Y-76962000D02*
X131334000Y-75930000D01*
X131588000Y-75676000D02*
X132842000Y-74422000D01*
%TO.N,PB3*%
X100822000Y-75930000D02*
X99314000Y-74422000D01*
X99314000Y-69936000D02*
X101350000Y-67900000D01*
X100822000Y-76962000D02*
X100822000Y-75930000D01*
X99314000Y-74422000D02*
X99314000Y-69936000D01*
X101350000Y-67900000D02*
X101350000Y-69854000D01*
X108116600Y-71358500D02*
X102854500Y-71358500D01*
X102854500Y-71358500D02*
X101350000Y-69854000D01*
%TD*%
%TA.AperFunction,Conductor*%
%TO.N,GND*%
G36*
X97443498Y-95870191D02*
G01*
X97461772Y-95875088D01*
X97568438Y-95903670D01*
X97598191Y-95926500D01*
X97603086Y-95963682D01*
X97580256Y-95993435D01*
X97555756Y-96000000D01*
X97464296Y-96000000D01*
X97429648Y-95985648D01*
X97396170Y-95952170D01*
X97381818Y-95917522D01*
X97396170Y-95882874D01*
X97430818Y-95868522D01*
X97443498Y-95870191D01*
G37*
%TD.AperFunction*%
%TA.AperFunction,Conductor*%
G36*
X133590404Y-62014352D02*
G01*
X133604756Y-62049000D01*
X133590404Y-62083648D01*
X133568438Y-62096330D01*
X133371691Y-62149048D01*
X133371685Y-62149050D01*
X133135463Y-62246896D01*
X132914037Y-62374737D01*
X132914022Y-62374747D01*
X132711196Y-62530381D01*
X132711184Y-62530392D01*
X132530392Y-62711184D01*
X132530381Y-62711196D01*
X132374747Y-62914022D01*
X132374737Y-62914037D01*
X132246896Y-63135463D01*
X132149050Y-63371685D01*
X132149048Y-63371691D01*
X132082876Y-63618648D01*
X132082874Y-63618656D01*
X132082874Y-63618660D01*
X132049500Y-63872157D01*
X132049500Y-63872160D01*
X132049500Y-64127839D01*
X132049499Y-64127839D01*
X132054854Y-64168511D01*
X132082874Y-64381340D01*
X132082875Y-64381344D01*
X132082876Y-64381351D01*
X132149048Y-64628308D01*
X132149050Y-64628314D01*
X132246896Y-64864536D01*
X132374737Y-65085962D01*
X132374747Y-65085977D01*
X132530381Y-65288803D01*
X132530392Y-65288815D01*
X132711184Y-65469607D01*
X132711196Y-65469618D01*
X132914022Y-65625252D01*
X132914031Y-65625258D01*
X132914035Y-65625261D01*
X133135465Y-65753104D01*
X133371687Y-65850950D01*
X133371691Y-65850951D01*
X133618648Y-65917123D01*
X133618649Y-65917123D01*
X133618660Y-65917126D01*
X133872157Y-65950500D01*
X133872160Y-65950500D01*
X134127839Y-65950500D01*
X134127843Y-65950500D01*
X134381340Y-65917126D01*
X134628313Y-65850950D01*
X134864535Y-65753104D01*
X135085965Y-65625261D01*
X135100170Y-65614361D01*
X135288803Y-65469618D01*
X135288805Y-65469615D01*
X135288813Y-65469610D01*
X135469610Y-65288813D01*
X135625261Y-65085965D01*
X135753104Y-64864535D01*
X135850950Y-64628313D01*
X135891587Y-64476654D01*
X135903670Y-64431561D01*
X135926500Y-64401808D01*
X135963682Y-64396913D01*
X135993435Y-64419743D01*
X136000000Y-64444243D01*
X136000000Y-93555756D01*
X135985648Y-93590404D01*
X135951000Y-93604756D01*
X135916352Y-93590404D01*
X135903670Y-93568438D01*
X135850951Y-93371691D01*
X135850949Y-93371685D01*
X135797761Y-93243276D01*
X135753104Y-93135465D01*
X135625261Y-92914035D01*
X135625258Y-92914031D01*
X135625252Y-92914022D01*
X135469618Y-92711196D01*
X135469607Y-92711184D01*
X135288815Y-92530392D01*
X135288803Y-92530381D01*
X135085977Y-92374747D01*
X135085962Y-92374737D01*
X134864535Y-92246896D01*
X134864536Y-92246896D01*
X134628314Y-92149050D01*
X134628308Y-92149048D01*
X134381351Y-92082876D01*
X134381344Y-92082875D01*
X134381340Y-92082874D01*
X134127843Y-92049500D01*
X133872157Y-92049500D01*
X133618660Y-92082874D01*
X133618656Y-92082874D01*
X133618648Y-92082876D01*
X133371691Y-92149048D01*
X133371685Y-92149050D01*
X133135463Y-92246896D01*
X132914037Y-92374737D01*
X132914022Y-92374747D01*
X132711196Y-92530381D01*
X132711184Y-92530392D01*
X132530392Y-92711184D01*
X132530381Y-92711196D01*
X132374747Y-92914022D01*
X132374737Y-92914037D01*
X132246896Y-93135463D01*
X132149050Y-93371685D01*
X132149048Y-93371691D01*
X132082876Y-93618648D01*
X132082874Y-93618656D01*
X132082874Y-93618660D01*
X132051271Y-93858706D01*
X132049500Y-93872160D01*
X132049500Y-94127839D01*
X132049499Y-94127839D01*
X132058987Y-94199903D01*
X132082874Y-94381340D01*
X132082875Y-94381344D01*
X132082876Y-94381351D01*
X132149048Y-94628308D01*
X132149050Y-94628314D01*
X132246896Y-94864536D01*
X132374737Y-95085962D01*
X132374747Y-95085977D01*
X132530381Y-95288803D01*
X132530392Y-95288815D01*
X132711184Y-95469607D01*
X132711196Y-95469618D01*
X132914022Y-95625252D01*
X132914031Y-95625258D01*
X132914035Y-95625261D01*
X133135465Y-95753104D01*
X133371687Y-95850950D01*
X133371691Y-95850951D01*
X133568438Y-95903670D01*
X133598191Y-95926500D01*
X133603086Y-95963682D01*
X133580256Y-95993435D01*
X133555756Y-96000000D01*
X98444244Y-96000000D01*
X98409596Y-95985648D01*
X98395244Y-95951000D01*
X98409596Y-95916352D01*
X98431562Y-95903670D01*
X98574410Y-95865393D01*
X98628313Y-95850950D01*
X98864535Y-95753104D01*
X99085965Y-95625261D01*
X99288813Y-95469610D01*
X99469610Y-95288813D01*
X99625261Y-95085965D01*
X99753104Y-94864535D01*
X99850950Y-94628313D01*
X99917126Y-94381340D01*
X99950500Y-94127843D01*
X99950500Y-93872157D01*
X99930205Y-93718001D01*
X102760445Y-93718001D01*
X102767911Y-93769247D01*
X102767911Y-93769249D01*
X102819212Y-93874186D01*
X102819215Y-93874190D01*
X102901809Y-93956784D01*
X102901813Y-93956786D01*
X102958000Y-93984255D01*
X102958000Y-93984254D01*
X103958000Y-93984254D01*
X104014186Y-93956786D01*
X104014190Y-93956784D01*
X104096784Y-93874190D01*
X104096786Y-93874186D01*
X104148087Y-93769249D01*
X104148087Y-93769248D01*
X104155554Y-93718000D01*
X103958000Y-93718000D01*
X103958000Y-93984254D01*
X102958000Y-93984254D01*
X102958000Y-93718000D01*
X102760447Y-93718000D01*
X102760445Y-93718001D01*
X99930205Y-93718001D01*
X99917126Y-93618660D01*
X99913400Y-93604756D01*
X99850951Y-93371691D01*
X99850949Y-93371685D01*
X99797761Y-93243276D01*
X99753104Y-93135465D01*
X99625261Y-92914035D01*
X99625258Y-92914031D01*
X99625252Y-92914022D01*
X99509319Y-92762936D01*
X99474838Y-92717999D01*
X102760445Y-92717999D01*
X102760446Y-92718000D01*
X102958000Y-92718000D01*
X103958000Y-92718000D01*
X104155553Y-92718000D01*
X104155554Y-92717998D01*
X104154931Y-92713724D01*
X104657500Y-92713724D01*
X104657500Y-93722275D01*
X104660353Y-93752698D01*
X104660353Y-93752699D01*
X104705204Y-93880876D01*
X104705208Y-93880885D01*
X104785849Y-93990150D01*
X104895114Y-94070791D01*
X104895117Y-94070792D01*
X104895118Y-94070793D01*
X104895120Y-94070793D01*
X104895123Y-94070795D01*
X105023301Y-94115646D01*
X105053734Y-94118500D01*
X105053744Y-94118500D01*
X105862256Y-94118500D01*
X105862266Y-94118500D01*
X105892699Y-94115646D01*
X106020882Y-94070793D01*
X106130150Y-93990150D01*
X106185055Y-93915756D01*
X106210792Y-93880884D01*
X106210795Y-93880876D01*
X106221138Y-93851316D01*
X106246126Y-93823353D01*
X106267388Y-93818500D01*
X106648612Y-93818500D01*
X106683260Y-93832852D01*
X106694861Y-93851315D01*
X106700030Y-93866088D01*
X106705207Y-93880884D01*
X106785847Y-93990148D01*
X106785850Y-93990150D01*
X106859058Y-94044180D01*
X106877290Y-94070921D01*
X106890039Y-94118500D01*
X106898423Y-94149785D01*
X106927360Y-94199904D01*
X106927361Y-94199905D01*
X106977477Y-94286712D01*
X106977482Y-94286718D01*
X107092074Y-94401310D01*
X107092080Y-94401315D01*
X107576764Y-94885999D01*
X107576769Y-94886005D01*
X107578480Y-94887716D01*
X107690284Y-94999520D01*
X107690287Y-94999521D01*
X107690290Y-94999524D01*
X107743256Y-95030103D01*
X107827213Y-95078575D01*
X107827212Y-95078575D01*
X107827216Y-95078577D01*
X107939019Y-95108534D01*
X107979942Y-95119500D01*
X107979943Y-95119500D01*
X111900930Y-95119500D01*
X111900946Y-95119501D01*
X111903943Y-95119501D01*
X112062059Y-95119501D01*
X112214781Y-95078578D01*
X112214779Y-95078578D01*
X112214785Y-95078577D01*
X112214789Y-95078575D01*
X112298742Y-95030104D01*
X112351716Y-94999520D01*
X112463520Y-94887716D01*
X112463520Y-94887714D01*
X112467549Y-94883686D01*
X112467553Y-94883681D01*
X117864681Y-89486553D01*
X117864686Y-89486549D01*
X117868714Y-89482520D01*
X117868716Y-89482520D01*
X117980520Y-89370716D01*
X118052366Y-89246274D01*
X118059577Y-89233785D01*
X118100499Y-89081061D01*
X118100500Y-89081061D01*
X118100500Y-88508375D01*
X118114852Y-88473727D01*
X118122278Y-88467633D01*
X118157224Y-88444283D01*
X118169655Y-88435977D01*
X118315977Y-88289655D01*
X118430941Y-88117598D01*
X118431228Y-88116903D01*
X118431408Y-88116723D01*
X118432078Y-88115471D01*
X118432457Y-88115674D01*
X118457744Y-88090383D01*
X118495247Y-88090379D01*
X118521768Y-88116895D01*
X118525500Y-88135651D01*
X118525500Y-91780353D01*
X118525499Y-91780371D01*
X118525499Y-91941483D01*
X118566421Y-92094205D01*
X118566422Y-92094207D01*
X118566423Y-92094209D01*
X118595360Y-92144328D01*
X118614387Y-92177284D01*
X118645477Y-92231136D01*
X118645482Y-92231142D01*
X118760074Y-92345734D01*
X118760080Y-92345739D01*
X121300340Y-94885999D01*
X121300345Y-94886005D01*
X121302056Y-94887716D01*
X121413860Y-94999520D01*
X121413861Y-94999521D01*
X121413863Y-94999522D01*
X121434416Y-95011387D01*
X121466834Y-95030104D01*
X121550788Y-95078576D01*
X121550794Y-95078578D01*
X121703516Y-95119501D01*
X121703519Y-95119501D01*
X121864631Y-95119501D01*
X121864647Y-95119500D01*
X129119354Y-95119500D01*
X129119370Y-95119501D01*
X129122367Y-95119501D01*
X129280483Y-95119501D01*
X129433205Y-95078578D01*
X129433203Y-95078578D01*
X129433209Y-95078577D01*
X129433213Y-95078575D01*
X129517166Y-95030104D01*
X129570140Y-94999520D01*
X129681944Y-94887716D01*
X129681944Y-94887714D01*
X129685973Y-94883686D01*
X129685977Y-94883681D01*
X133460681Y-91108977D01*
X133460686Y-91108973D01*
X133464714Y-91104944D01*
X133464716Y-91104944D01*
X133576520Y-90993140D01*
X133608566Y-90937632D01*
X133638316Y-90914803D01*
X133675499Y-90919697D01*
X133698330Y-90949449D01*
X133700000Y-90962132D01*
X133700000Y-91009844D01*
X133700001Y-91009845D01*
X133705802Y-91039018D01*
X133705804Y-91039022D01*
X133727904Y-91072097D01*
X133760980Y-91094197D01*
X133790153Y-91099999D01*
X133849999Y-91099999D01*
X134850000Y-91099999D01*
X134909845Y-91099999D01*
X134909845Y-91099998D01*
X134939018Y-91094197D01*
X134939022Y-91094195D01*
X134972097Y-91072095D01*
X134994197Y-91039019D01*
X135000000Y-91009845D01*
X135000000Y-90600000D01*
X134850000Y-90600000D01*
X134850000Y-91099999D01*
X133849999Y-91099999D01*
X133850000Y-91099998D01*
X133850000Y-89600000D01*
X134850000Y-89600000D01*
X134999999Y-89600000D01*
X134999999Y-89190155D01*
X134999998Y-89190154D01*
X134994197Y-89160981D01*
X134994195Y-89160977D01*
X134972095Y-89127902D01*
X134939019Y-89105802D01*
X134909846Y-89100000D01*
X134850000Y-89100000D01*
X134850000Y-89600000D01*
X133850000Y-89600000D01*
X133850000Y-89100000D01*
X133790155Y-89100000D01*
X133790154Y-89100001D01*
X133756249Y-89106744D01*
X133755792Y-89104450D01*
X133726738Y-89104444D01*
X133700225Y-89077919D01*
X133696500Y-89059178D01*
X133696500Y-85043547D01*
X133710852Y-85008899D01*
X133745500Y-84994547D01*
X133755060Y-84995489D01*
X133780252Y-85000500D01*
X133780253Y-85000500D01*
X134919745Y-85000500D01*
X134919748Y-85000500D01*
X134978231Y-84988867D01*
X135044552Y-84944552D01*
X135088867Y-84878231D01*
X135100500Y-84819748D01*
X135100500Y-82980252D01*
X135088867Y-82921769D01*
X135048776Y-82861769D01*
X135044552Y-82855447D01*
X135003499Y-82828017D01*
X134978231Y-82811133D01*
X134919748Y-82799500D01*
X133780252Y-82799500D01*
X133769931Y-82801553D01*
X133755058Y-82804511D01*
X133718276Y-82797193D01*
X133697441Y-82766010D01*
X133696500Y-82756452D01*
X133696500Y-82565032D01*
X133710852Y-82530384D01*
X133814519Y-82426717D01*
X133814520Y-82426716D01*
X133882999Y-82308106D01*
X133893577Y-82289785D01*
X133908637Y-82233580D01*
X133934501Y-82137059D01*
X133934501Y-81975947D01*
X133934500Y-81975929D01*
X133934500Y-81875765D01*
X133948852Y-81841117D01*
X133954393Y-81836347D01*
X134006150Y-81798150D01*
X134086793Y-81688882D01*
X134131646Y-81560699D01*
X134134500Y-81530266D01*
X134134500Y-80521734D01*
X134131646Y-80491301D01*
X134116184Y-80447114D01*
X134086795Y-80363123D01*
X134086791Y-80363114D01*
X134006150Y-80253849D01*
X133954403Y-80215658D01*
X133935047Y-80183536D01*
X133934500Y-80176233D01*
X133934500Y-77811765D01*
X133948852Y-77777117D01*
X133954393Y-77772347D01*
X134006150Y-77734150D01*
X134086793Y-77624882D01*
X134131646Y-77496699D01*
X134134500Y-77466266D01*
X134134500Y-76457734D01*
X134131646Y-76427301D01*
X134086793Y-76299118D01*
X134086792Y-76299117D01*
X134086791Y-76299114D01*
X134006150Y-76189849D01*
X133896885Y-76109208D01*
X133896876Y-76109204D01*
X133768698Y-76064353D01*
X133738275Y-76061500D01*
X133738266Y-76061500D01*
X132929734Y-76061500D01*
X132929724Y-76061500D01*
X132899301Y-76064353D01*
X132899300Y-76064353D01*
X132771123Y-76109204D01*
X132771114Y-76109208D01*
X132661849Y-76189849D01*
X132581208Y-76299114D01*
X132581204Y-76299123D01*
X132536353Y-76427300D01*
X132536353Y-76427301D01*
X132533500Y-76457724D01*
X132533500Y-77466275D01*
X132536353Y-77496698D01*
X132536353Y-77496699D01*
X132581204Y-77624876D01*
X132581208Y-77624885D01*
X132661845Y-77734144D01*
X132661847Y-77734146D01*
X132661850Y-77734150D01*
X132713598Y-77772341D01*
X132732953Y-77804461D01*
X132733500Y-77811765D01*
X132733500Y-80176233D01*
X132719148Y-80210881D01*
X132713597Y-80215658D01*
X132661849Y-80253849D01*
X132581208Y-80363114D01*
X132581204Y-80363123D01*
X132536353Y-80491300D01*
X132536353Y-80491301D01*
X132533500Y-80521724D01*
X132533500Y-81530275D01*
X132536353Y-81560698D01*
X132536353Y-81560699D01*
X132581204Y-81688876D01*
X132581208Y-81688885D01*
X132661849Y-81798150D01*
X132663655Y-81799483D01*
X132664372Y-81800673D01*
X132664446Y-81800747D01*
X132664427Y-81800765D01*
X132683011Y-81831605D01*
X132673983Y-81868005D01*
X132669207Y-81873556D01*
X132615479Y-81927285D01*
X132615477Y-81927287D01*
X132593111Y-81966028D01*
X132585658Y-81978939D01*
X132585656Y-81978942D01*
X132585655Y-81978943D01*
X132536423Y-82064212D01*
X132536422Y-82064216D01*
X132495499Y-82216940D01*
X132495499Y-82379000D01*
X132495500Y-82379013D01*
X132495500Y-90355393D01*
X132481148Y-90390041D01*
X129167541Y-93703648D01*
X129132893Y-93718000D01*
X127794447Y-93718000D01*
X127794445Y-93718001D01*
X127801911Y-93769247D01*
X127801911Y-93769249D01*
X127840401Y-93847979D01*
X127842725Y-93885410D01*
X127817901Y-93913521D01*
X127796380Y-93918500D01*
X127300689Y-93918500D01*
X127266041Y-93904148D01*
X127251689Y-93869500D01*
X127254439Y-93853316D01*
X127264405Y-93824833D01*
X127289646Y-93752699D01*
X127292500Y-93722266D01*
X127292500Y-92717999D01*
X127794445Y-92717999D01*
X127794446Y-92718000D01*
X127992000Y-92718000D01*
X128992000Y-92718000D01*
X129189553Y-92718000D01*
X129189554Y-92717998D01*
X129182088Y-92666752D01*
X129182088Y-92666750D01*
X129130787Y-92561813D01*
X129130784Y-92561809D01*
X129048190Y-92479215D01*
X129048185Y-92479211D01*
X128992000Y-92451743D01*
X128992000Y-92718000D01*
X127992000Y-92718000D01*
X127992000Y-92451743D01*
X127991999Y-92451743D01*
X127935814Y-92479211D01*
X127935809Y-92479215D01*
X127853215Y-92561809D01*
X127853213Y-92561813D01*
X127801912Y-92666750D01*
X127801912Y-92666751D01*
X127794445Y-92717999D01*
X127292500Y-92717999D01*
X127292500Y-92713734D01*
X127289646Y-92683301D01*
X127289645Y-92683296D01*
X127244795Y-92555123D01*
X127244791Y-92555114D01*
X127164150Y-92445849D01*
X127054885Y-92365208D01*
X127054876Y-92365204D01*
X126926698Y-92320353D01*
X126896275Y-92317500D01*
X126896266Y-92317500D01*
X126087734Y-92317500D01*
X126087724Y-92317500D01*
X126057301Y-92320353D01*
X126057300Y-92320353D01*
X125929123Y-92365204D01*
X125929114Y-92365208D01*
X125819849Y-92445849D01*
X125739207Y-92555115D01*
X125736864Y-92561813D01*
X125728861Y-92584683D01*
X125703874Y-92612647D01*
X125682612Y-92617500D01*
X125301388Y-92617500D01*
X125266740Y-92603148D01*
X125255138Y-92584684D01*
X125244793Y-92555118D01*
X125244792Y-92555115D01*
X125164150Y-92445849D01*
X125112403Y-92407658D01*
X125093047Y-92375536D01*
X125092500Y-92368233D01*
X125092500Y-89888543D01*
X125299500Y-89888543D01*
X125299500Y-90111457D01*
X125328596Y-90332463D01*
X125328597Y-90332467D01*
X125328598Y-90332474D01*
X125386288Y-90547776D01*
X125386290Y-90547782D01*
X125471595Y-90753727D01*
X125583050Y-90946771D01*
X125583060Y-90946786D01*
X125718748Y-91123618D01*
X125718758Y-91123630D01*
X125876369Y-91281241D01*
X125876381Y-91281251D01*
X126053213Y-91416939D01*
X126053222Y-91416945D01*
X126053226Y-91416948D01*
X126246274Y-91528405D01*
X126452219Y-91613710D01*
X126452223Y-91613711D01*
X126667525Y-91671401D01*
X126667526Y-91671401D01*
X126667537Y-91671404D01*
X126888543Y-91700500D01*
X126888547Y-91700500D01*
X127111453Y-91700500D01*
X127111457Y-91700500D01*
X127332463Y-91671404D01*
X127547781Y-91613710D01*
X127753726Y-91528405D01*
X127946774Y-91416948D01*
X128123624Y-91281247D01*
X128281247Y-91123624D01*
X128382194Y-90992065D01*
X128416939Y-90946786D01*
X128416940Y-90946783D01*
X128416948Y-90946774D01*
X128528405Y-90753726D01*
X128613710Y-90547781D01*
X128671404Y-90332463D01*
X128700500Y-90111457D01*
X128700500Y-89888543D01*
X128671404Y-89667537D01*
X128613710Y-89452219D01*
X128528405Y-89246274D01*
X128490287Y-89180252D01*
X129899500Y-89180252D01*
X129899500Y-91019748D01*
X129911133Y-91078231D01*
X129925678Y-91099999D01*
X129955447Y-91144552D01*
X129982012Y-91162301D01*
X130021769Y-91188867D01*
X130080252Y-91200500D01*
X130080255Y-91200500D01*
X131219745Y-91200500D01*
X131219748Y-91200500D01*
X131278231Y-91188867D01*
X131344552Y-91144552D01*
X131388867Y-91078231D01*
X131400500Y-91019748D01*
X131400500Y-89180252D01*
X131388867Y-89121769D01*
X131359567Y-89077919D01*
X131344552Y-89055447D01*
X131304795Y-89028882D01*
X131278231Y-89011133D01*
X131219748Y-88999500D01*
X130080252Y-88999500D01*
X130021769Y-89011133D01*
X129955447Y-89055447D01*
X129911133Y-89121769D01*
X129899500Y-89180252D01*
X128490287Y-89180252D01*
X128416948Y-89053226D01*
X128416945Y-89053222D01*
X128416939Y-89053213D01*
X128281251Y-88876381D01*
X128281241Y-88876369D01*
X128123630Y-88718758D01*
X128123618Y-88718748D01*
X127946786Y-88583060D01*
X127946771Y-88583050D01*
X127753726Y-88471595D01*
X127753727Y-88471595D01*
X127547782Y-88386290D01*
X127547776Y-88386288D01*
X127332474Y-88328598D01*
X127332467Y-88328597D01*
X127332463Y-88328596D01*
X127111457Y-88299500D01*
X126888543Y-88299500D01*
X126667537Y-88328596D01*
X126667533Y-88328596D01*
X126667525Y-88328598D01*
X126452223Y-88386288D01*
X126452217Y-88386290D01*
X126246272Y-88471595D01*
X126053228Y-88583050D01*
X126053213Y-88583060D01*
X125876381Y-88718748D01*
X125876369Y-88718758D01*
X125718758Y-88876369D01*
X125718748Y-88876381D01*
X125583060Y-89053213D01*
X125583050Y-89053228D01*
X125471595Y-89246272D01*
X125386290Y-89452217D01*
X125386288Y-89452223D01*
X125328598Y-89667525D01*
X125328596Y-89667533D01*
X125328596Y-89667537D01*
X125299500Y-89888543D01*
X125092500Y-89888543D01*
X125092500Y-87848000D01*
X125106852Y-87813352D01*
X125141500Y-87799000D01*
X125213210Y-87799000D01*
X125213216Y-87799000D01*
X125283796Y-87792586D01*
X125283798Y-87792585D01*
X125283801Y-87792585D01*
X125446203Y-87741979D01*
X125446204Y-87741979D01*
X125476830Y-87723465D01*
X125591785Y-87653972D01*
X125617912Y-87627845D01*
X126658001Y-87627845D01*
X126663802Y-87657018D01*
X126663804Y-87657022D01*
X126685904Y-87690097D01*
X126718980Y-87712197D01*
X126748154Y-87717999D01*
X127007999Y-87717999D01*
X128008000Y-87717999D01*
X128267845Y-87717999D01*
X128267845Y-87717998D01*
X128297018Y-87712197D01*
X128297022Y-87712195D01*
X128330097Y-87690095D01*
X128352197Y-87657019D01*
X128358000Y-87627845D01*
X128358000Y-87368000D01*
X128008000Y-87368000D01*
X128008000Y-87717999D01*
X127007999Y-87717999D01*
X127008000Y-87717998D01*
X127008000Y-87368000D01*
X126658001Y-87368000D01*
X126658001Y-87627845D01*
X125617912Y-87627845D01*
X125712072Y-87533685D01*
X125800078Y-87388106D01*
X125806343Y-87368000D01*
X125817211Y-87333126D01*
X125817211Y-87333125D01*
X125850685Y-87225701D01*
X125850685Y-87225698D01*
X125850686Y-87225696D01*
X125857100Y-87155116D01*
X125857100Y-86108154D01*
X126658000Y-86108154D01*
X126658000Y-86368000D01*
X127008000Y-86368000D01*
X128008000Y-86368000D01*
X128357999Y-86368000D01*
X128357999Y-86108155D01*
X128357998Y-86108154D01*
X128352197Y-86078981D01*
X128352195Y-86078977D01*
X128330095Y-86045902D01*
X128297019Y-86023802D01*
X128267846Y-86018000D01*
X128008000Y-86018000D01*
X128008000Y-86368000D01*
X127008000Y-86368000D01*
X127008000Y-86018000D01*
X126748155Y-86018000D01*
X126748154Y-86018001D01*
X126718981Y-86023802D01*
X126718977Y-86023804D01*
X126685902Y-86045904D01*
X126663802Y-86078980D01*
X126658000Y-86108154D01*
X125857100Y-86108154D01*
X125857100Y-86041884D01*
X125850686Y-85971304D01*
X125850685Y-85971301D01*
X125850685Y-85971298D01*
X125800079Y-85808896D01*
X125800079Y-85808895D01*
X125712072Y-85663315D01*
X125591784Y-85543027D01*
X125446204Y-85455020D01*
X125283801Y-85404414D01*
X125251714Y-85401498D01*
X125213216Y-85398000D01*
X123349984Y-85398000D01*
X123314694Y-85401207D01*
X123279398Y-85404414D01*
X123116996Y-85455020D01*
X123116995Y-85455020D01*
X122971415Y-85543027D01*
X122851127Y-85663315D01*
X122763120Y-85808895D01*
X122763120Y-85808896D01*
X122712514Y-85971298D01*
X122710498Y-85993489D01*
X122706100Y-86041884D01*
X122706100Y-87155116D01*
X122709598Y-87193614D01*
X122712514Y-87225701D01*
X122763120Y-87388103D01*
X122763120Y-87388104D01*
X122851127Y-87533684D01*
X122971415Y-87653972D01*
X123116995Y-87741979D01*
X123279398Y-87792585D01*
X123279401Y-87792585D01*
X123279404Y-87792586D01*
X123349984Y-87799000D01*
X123842500Y-87799000D01*
X123877148Y-87813352D01*
X123891500Y-87848000D01*
X123891500Y-92368233D01*
X123877148Y-92402881D01*
X123871597Y-92407658D01*
X123819849Y-92445849D01*
X123739208Y-92555114D01*
X123739204Y-92555123D01*
X123694355Y-92683296D01*
X123694353Y-92683301D01*
X123691500Y-92713724D01*
X123691500Y-93722275D01*
X123694353Y-93752697D01*
X123729561Y-93853316D01*
X123727458Y-93890760D01*
X123699495Y-93915750D01*
X123683311Y-93918500D01*
X123300689Y-93918500D01*
X123266041Y-93904148D01*
X123251689Y-93869500D01*
X123254439Y-93853316D01*
X123264405Y-93824833D01*
X123289646Y-93752699D01*
X123292500Y-93722266D01*
X123292500Y-92713734D01*
X123289646Y-92683301D01*
X123289645Y-92683296D01*
X123244795Y-92555123D01*
X123244791Y-92555114D01*
X123164150Y-92445849D01*
X123054885Y-92365208D01*
X123054876Y-92365204D01*
X122926698Y-92320353D01*
X122896275Y-92317500D01*
X122896266Y-92317500D01*
X122651031Y-92317500D01*
X122616383Y-92303148D01*
X122534852Y-92221617D01*
X122520500Y-92186969D01*
X122520500Y-83501884D01*
X122706100Y-83501884D01*
X122706100Y-84615116D01*
X122709598Y-84653614D01*
X122712514Y-84685701D01*
X122763120Y-84848103D01*
X122763120Y-84848104D01*
X122851127Y-84993684D01*
X122971415Y-85113972D01*
X123116995Y-85201979D01*
X123279398Y-85252585D01*
X123279401Y-85252585D01*
X123279404Y-85252586D01*
X123349984Y-85259000D01*
X123349990Y-85259000D01*
X125213210Y-85259000D01*
X125213216Y-85259000D01*
X125283796Y-85252586D01*
X125283798Y-85252585D01*
X125283801Y-85252585D01*
X125446203Y-85201979D01*
X125446204Y-85201979D01*
X125476830Y-85183465D01*
X125591785Y-85113972D01*
X125712072Y-84993685D01*
X125800078Y-84848106D01*
X125841514Y-84715132D01*
X125850685Y-84685701D01*
X125850685Y-84685698D01*
X125850686Y-84685696D01*
X125857100Y-84615116D01*
X125857100Y-83501884D01*
X125850686Y-83431304D01*
X125850685Y-83431301D01*
X125850685Y-83431298D01*
X125800079Y-83268896D01*
X125800079Y-83268895D01*
X125783413Y-83241327D01*
X125769543Y-83218384D01*
X126557500Y-83218384D01*
X126557500Y-83405616D01*
X126562610Y-83431304D01*
X126594026Y-83589248D01*
X126594029Y-83589258D01*
X126665675Y-83762225D01*
X126665676Y-83762227D01*
X126665678Y-83762231D01*
X126769698Y-83917908D01*
X126902092Y-84050302D01*
X127057769Y-84154322D01*
X127057774Y-84154324D01*
X127230741Y-84225970D01*
X127230743Y-84225970D01*
X127230749Y-84225973D01*
X127414384Y-84262500D01*
X127414387Y-84262500D01*
X127601613Y-84262500D01*
X127601616Y-84262500D01*
X127785251Y-84225973D01*
X127958231Y-84154322D01*
X128113908Y-84050302D01*
X128246302Y-83917908D01*
X128350322Y-83762231D01*
X128421973Y-83589251D01*
X128458500Y-83405616D01*
X128458500Y-83218384D01*
X128421973Y-83034749D01*
X128399399Y-82980252D01*
X128350324Y-82861774D01*
X128350322Y-82861769D01*
X128246302Y-82706092D01*
X128202188Y-82661978D01*
X128122852Y-82582641D01*
X128108500Y-82547993D01*
X128108500Y-81819388D01*
X128122852Y-81784740D01*
X128141315Y-81773138D01*
X128170882Y-81762793D01*
X128170882Y-81762792D01*
X128170884Y-81762792D01*
X128280150Y-81682150D01*
X128360791Y-81572885D01*
X128360791Y-81572884D01*
X128360793Y-81572882D01*
X128405646Y-81444699D01*
X128408500Y-81414266D01*
X128408500Y-80605734D01*
X128405646Y-80575301D01*
X128386905Y-80521743D01*
X128360795Y-80447123D01*
X128360791Y-80447114D01*
X128280150Y-80337849D01*
X128170885Y-80257208D01*
X128170876Y-80257204D01*
X128042698Y-80212353D01*
X128012275Y-80209500D01*
X128012266Y-80209500D01*
X127003734Y-80209500D01*
X127003724Y-80209500D01*
X126973301Y-80212353D01*
X126973300Y-80212353D01*
X126845123Y-80257204D01*
X126845114Y-80257208D01*
X126735849Y-80337849D01*
X126655208Y-80447114D01*
X126655204Y-80447123D01*
X126610353Y-80575300D01*
X126610353Y-80575301D01*
X126607500Y-80605724D01*
X126607500Y-81414275D01*
X126610353Y-81444698D01*
X126610353Y-81444699D01*
X126655204Y-81572876D01*
X126655208Y-81572885D01*
X126735849Y-81682150D01*
X126845116Y-81762792D01*
X126845115Y-81762792D01*
X126845118Y-81762793D01*
X126874683Y-81773138D01*
X126902647Y-81798126D01*
X126907500Y-81819388D01*
X126907500Y-82547993D01*
X126893148Y-82582641D01*
X126769697Y-82706092D01*
X126701303Y-82808452D01*
X126668197Y-82858000D01*
X126665675Y-82861774D01*
X126594029Y-83034741D01*
X126594026Y-83034751D01*
X126593460Y-83037598D01*
X126557500Y-83218384D01*
X125769543Y-83218384D01*
X125712072Y-83123315D01*
X125591784Y-83003027D01*
X125446204Y-82915020D01*
X125283801Y-82864414D01*
X125251714Y-82861498D01*
X125213216Y-82858000D01*
X123349984Y-82858000D01*
X123314694Y-82861207D01*
X123279398Y-82864414D01*
X123116996Y-82915020D01*
X123116995Y-82915020D01*
X122971415Y-83003027D01*
X122851127Y-83123315D01*
X122763120Y-83268895D01*
X122763120Y-83268896D01*
X122712514Y-83431298D01*
X122709015Y-83469802D01*
X122706100Y-83501884D01*
X122520500Y-83501884D01*
X122520500Y-80961884D01*
X122706100Y-80961884D01*
X122706100Y-82075116D01*
X122709598Y-82113614D01*
X122712514Y-82145701D01*
X122763120Y-82308103D01*
X122763120Y-82308104D01*
X122851127Y-82453684D01*
X122971415Y-82573972D01*
X123116995Y-82661979D01*
X123279398Y-82712585D01*
X123279401Y-82712585D01*
X123279404Y-82712586D01*
X123349984Y-82719000D01*
X123349990Y-82719000D01*
X125213210Y-82719000D01*
X125213216Y-82719000D01*
X125283796Y-82712586D01*
X125283798Y-82712585D01*
X125283801Y-82712585D01*
X125446203Y-82661979D01*
X125446204Y-82661979D01*
X125476830Y-82643465D01*
X125591785Y-82573972D01*
X125712072Y-82453685D01*
X125800078Y-82308106D01*
X125828486Y-82216940D01*
X125850685Y-82145701D01*
X125850685Y-82145698D01*
X125850686Y-82145696D01*
X125857100Y-82075116D01*
X125857100Y-80961884D01*
X125850686Y-80891304D01*
X125850685Y-80891301D01*
X125850685Y-80891298D01*
X125800079Y-80728896D01*
X125800079Y-80728895D01*
X125712072Y-80583315D01*
X125591784Y-80463027D01*
X125446204Y-80375020D01*
X125283801Y-80324414D01*
X125251714Y-80321498D01*
X125213216Y-80318000D01*
X123349984Y-80318000D01*
X123314694Y-80321207D01*
X123279398Y-80324414D01*
X123116996Y-80375020D01*
X123116995Y-80375020D01*
X122971415Y-80463027D01*
X122851127Y-80583315D01*
X122763120Y-80728895D01*
X122763120Y-80728896D01*
X122712514Y-80891298D01*
X122709015Y-80929802D01*
X122706100Y-80961884D01*
X122520500Y-80961884D01*
X122520500Y-78421884D01*
X122706100Y-78421884D01*
X122706100Y-79535116D01*
X122709531Y-79572876D01*
X122712514Y-79605701D01*
X122763120Y-79768103D01*
X122763120Y-79768104D01*
X122851127Y-79913684D01*
X122971415Y-80033972D01*
X123116995Y-80121979D01*
X123279398Y-80172585D01*
X123279401Y-80172585D01*
X123279404Y-80172586D01*
X123349984Y-80179000D01*
X123349990Y-80179000D01*
X125213210Y-80179000D01*
X125213216Y-80179000D01*
X125283796Y-80172586D01*
X125283798Y-80172585D01*
X125283801Y-80172585D01*
X125446203Y-80121979D01*
X125446204Y-80121979D01*
X125446206Y-80121978D01*
X125591785Y-80033972D01*
X125712072Y-79913685D01*
X125800078Y-79768106D01*
X125801734Y-79762791D01*
X125848279Y-79613423D01*
X125872288Y-79584613D01*
X125895060Y-79579000D01*
X126634986Y-79579000D01*
X126669634Y-79593352D01*
X126674405Y-79598895D01*
X126715330Y-79654346D01*
X126735851Y-79682152D01*
X126845114Y-79762791D01*
X126845117Y-79762792D01*
X126845118Y-79762793D01*
X126845120Y-79762793D01*
X126845123Y-79762795D01*
X126914386Y-79787031D01*
X126973301Y-79807646D01*
X127003734Y-79810500D01*
X127003744Y-79810500D01*
X128012256Y-79810500D01*
X128012266Y-79810500D01*
X128042699Y-79807646D01*
X128170882Y-79762793D01*
X128186088Y-79751571D01*
X128280150Y-79682150D01*
X128360791Y-79572885D01*
X128360791Y-79572884D01*
X128360793Y-79572882D01*
X128405646Y-79444699D01*
X128408500Y-79414266D01*
X128408500Y-78605734D01*
X128405646Y-78575301D01*
X128400927Y-78561816D01*
X128360795Y-78447123D01*
X128360791Y-78447114D01*
X128280150Y-78337849D01*
X128170885Y-78257208D01*
X128170876Y-78257204D01*
X128042698Y-78212353D01*
X128012275Y-78209500D01*
X128012266Y-78209500D01*
X127003734Y-78209500D01*
X127003724Y-78209500D01*
X126973301Y-78212353D01*
X126973300Y-78212353D01*
X126845123Y-78257204D01*
X126845114Y-78257208D01*
X126735850Y-78337848D01*
X126720908Y-78358096D01*
X126688786Y-78377453D01*
X126681482Y-78378000D01*
X125895060Y-78378000D01*
X125860412Y-78363648D01*
X125848279Y-78343577D01*
X125800079Y-78188896D01*
X125800079Y-78188895D01*
X125712072Y-78043315D01*
X125591784Y-77923027D01*
X125446204Y-77835020D01*
X125283801Y-77784414D01*
X125251714Y-77781498D01*
X125213216Y-77778000D01*
X123349984Y-77778000D01*
X123314694Y-77781207D01*
X123279398Y-77784414D01*
X123116996Y-77835020D01*
X123116995Y-77835020D01*
X122971415Y-77923027D01*
X122851127Y-78043315D01*
X122763120Y-78188895D01*
X122763120Y-78188896D01*
X122712514Y-78351298D01*
X122711392Y-78363648D01*
X122706100Y-78421884D01*
X122520500Y-78421884D01*
X122520500Y-73341884D01*
X122706100Y-73341884D01*
X122706100Y-74455116D01*
X122707517Y-74470705D01*
X122712514Y-74525701D01*
X122763120Y-74688103D01*
X122763120Y-74688104D01*
X122851127Y-74833684D01*
X122971415Y-74953972D01*
X123116995Y-75041979D01*
X123279398Y-75092585D01*
X123279401Y-75092585D01*
X123279404Y-75092586D01*
X123349984Y-75099000D01*
X123349990Y-75099000D01*
X125213210Y-75099000D01*
X125213216Y-75099000D01*
X125273368Y-75093533D01*
X125309171Y-75104690D01*
X125312449Y-75107684D01*
X125383469Y-75178704D01*
X125397821Y-75213352D01*
X125383469Y-75248000D01*
X125348821Y-75262352D01*
X125334244Y-75260133D01*
X125283801Y-75244414D01*
X125251714Y-75241498D01*
X125213216Y-75238000D01*
X123349984Y-75238000D01*
X123314694Y-75241207D01*
X123279398Y-75244414D01*
X123116996Y-75295020D01*
X123116995Y-75295020D01*
X122971415Y-75383027D01*
X122851127Y-75503315D01*
X122763120Y-75648895D01*
X122763120Y-75648896D01*
X122712514Y-75811298D01*
X122709015Y-75849802D01*
X122706100Y-75881884D01*
X122706100Y-76995116D01*
X122709598Y-77033614D01*
X122712514Y-77065701D01*
X122763120Y-77228103D01*
X122763120Y-77228104D01*
X122851127Y-77373684D01*
X122971415Y-77493972D01*
X123116995Y-77581979D01*
X123279398Y-77632585D01*
X123279401Y-77632585D01*
X123279404Y-77632586D01*
X123349984Y-77639000D01*
X123349990Y-77639000D01*
X125213210Y-77639000D01*
X125213216Y-77639000D01*
X125283796Y-77632586D01*
X125283798Y-77632585D01*
X125283801Y-77632585D01*
X125446203Y-77581979D01*
X125446204Y-77581979D01*
X125446206Y-77581978D01*
X125591785Y-77493972D01*
X125712072Y-77373685D01*
X125800078Y-77228106D01*
X125800079Y-77228103D01*
X125850685Y-77065701D01*
X125850685Y-77065698D01*
X125850686Y-77065696D01*
X125857100Y-76995116D01*
X125857100Y-75881884D01*
X125850686Y-75811304D01*
X125834966Y-75760855D01*
X125838360Y-75723507D01*
X125867169Y-75699497D01*
X125904518Y-75702891D01*
X125916395Y-75711630D01*
X130035148Y-79830383D01*
X130049500Y-79865031D01*
X130049500Y-82766905D01*
X130035148Y-82801553D01*
X130025486Y-82808010D01*
X130025781Y-82808452D01*
X129955447Y-82855447D01*
X129915641Y-82915022D01*
X129911133Y-82921769D01*
X129899500Y-82980252D01*
X129899500Y-84819748D01*
X129911133Y-84878231D01*
X129928882Y-84904795D01*
X129955447Y-84944552D01*
X129970575Y-84954660D01*
X130021769Y-84988867D01*
X130080252Y-85000500D01*
X130080255Y-85000500D01*
X131219745Y-85000500D01*
X131219748Y-85000500D01*
X131278231Y-84988867D01*
X131344552Y-84944552D01*
X131388867Y-84878231D01*
X131400500Y-84819748D01*
X131400500Y-82980252D01*
X131388867Y-82921769D01*
X131348776Y-82861769D01*
X131344552Y-82855447D01*
X131274219Y-82808452D01*
X131275341Y-82806771D01*
X131254225Y-82785645D01*
X131250500Y-82766905D01*
X131250500Y-81975500D01*
X131264852Y-81940852D01*
X131299500Y-81926500D01*
X131738256Y-81926500D01*
X131738266Y-81926500D01*
X131768699Y-81923646D01*
X131896882Y-81878793D01*
X131911500Y-81868005D01*
X132006150Y-81798150D01*
X132086791Y-81688885D01*
X132086791Y-81688884D01*
X132086793Y-81688882D01*
X132131646Y-81560699D01*
X132134500Y-81530266D01*
X132134500Y-80521734D01*
X132131646Y-80491301D01*
X132116184Y-80447114D01*
X132086795Y-80363123D01*
X132086791Y-80363114D01*
X132006150Y-80253849D01*
X131896885Y-80173208D01*
X131896876Y-80173204D01*
X131768698Y-80128353D01*
X131738275Y-80125500D01*
X131738266Y-80125500D01*
X131299500Y-80125500D01*
X131264852Y-80111148D01*
X131250500Y-80076500D01*
X131250500Y-79679014D01*
X131250501Y-79679001D01*
X131250501Y-79516941D01*
X131225312Y-79422940D01*
X131209577Y-79364216D01*
X131209576Y-79364214D01*
X131209576Y-79364213D01*
X131130524Y-79227290D01*
X131130521Y-79227287D01*
X131130520Y-79227284D01*
X126913081Y-75009845D01*
X130000001Y-75009845D01*
X130005802Y-75039018D01*
X130005804Y-75039022D01*
X130027904Y-75072097D01*
X130060980Y-75094197D01*
X130090153Y-75099999D01*
X130149999Y-75099999D01*
X130150000Y-75099998D01*
X130150000Y-74600000D01*
X130000001Y-74600000D01*
X130000001Y-75009845D01*
X126913081Y-75009845D01*
X125871452Y-73968216D01*
X125857100Y-73933568D01*
X125857100Y-73341889D01*
X125857100Y-73341884D01*
X125850686Y-73271304D01*
X125829191Y-73202322D01*
X125829191Y-73202321D01*
X125825400Y-73190154D01*
X130000000Y-73190154D01*
X130000000Y-73600000D01*
X130150000Y-73600000D01*
X131150000Y-73600000D01*
X131299999Y-73600000D01*
X131299999Y-73190155D01*
X131299998Y-73190154D01*
X131294197Y-73160981D01*
X131294195Y-73160977D01*
X131272095Y-73127902D01*
X131239019Y-73105802D01*
X131209846Y-73100000D01*
X131150000Y-73100000D01*
X131150000Y-73600000D01*
X130150000Y-73600000D01*
X130150000Y-73100000D01*
X130090155Y-73100000D01*
X130090154Y-73100001D01*
X130060981Y-73105802D01*
X130060977Y-73105804D01*
X130027902Y-73127904D01*
X130005802Y-73160980D01*
X130000000Y-73190154D01*
X125825400Y-73190154D01*
X125800079Y-73108896D01*
X125800079Y-73108895D01*
X125712072Y-72963315D01*
X125591784Y-72843027D01*
X125446204Y-72755020D01*
X125283801Y-72704414D01*
X125251714Y-72701498D01*
X125213216Y-72698000D01*
X123349984Y-72698000D01*
X123314694Y-72701207D01*
X123279398Y-72704414D01*
X123116996Y-72755020D01*
X123116995Y-72755020D01*
X122971415Y-72843027D01*
X122851127Y-72963315D01*
X122763120Y-73108895D01*
X122763120Y-73108896D01*
X122712514Y-73271298D01*
X122710598Y-73292387D01*
X122706100Y-73341884D01*
X122520500Y-73341884D01*
X122520500Y-70801884D01*
X122706100Y-70801884D01*
X122706100Y-71915116D01*
X122709598Y-71953614D01*
X122712514Y-71985701D01*
X122763120Y-72148103D01*
X122763120Y-72148104D01*
X122851127Y-72293684D01*
X122971415Y-72413972D01*
X123116995Y-72501979D01*
X123279398Y-72552585D01*
X123279401Y-72552585D01*
X123279404Y-72552586D01*
X123349984Y-72559000D01*
X123349990Y-72559000D01*
X125213210Y-72559000D01*
X125213216Y-72559000D01*
X125283796Y-72552586D01*
X125283798Y-72552585D01*
X125283801Y-72552585D01*
X125446203Y-72501979D01*
X125446204Y-72501979D01*
X125446206Y-72501978D01*
X125591785Y-72413972D01*
X125712072Y-72293685D01*
X125800078Y-72148106D01*
X125812756Y-72107420D01*
X125848279Y-71993423D01*
X125872288Y-71964613D01*
X125895060Y-71959000D01*
X126114245Y-71959000D01*
X126126928Y-71960670D01*
X126178540Y-71974500D01*
X126178542Y-71974500D01*
X126178543Y-71974500D01*
X126825057Y-71974500D01*
X131556969Y-71974500D01*
X131591617Y-71988852D01*
X132227148Y-72624383D01*
X132241500Y-72659031D01*
X132241500Y-74152968D01*
X132227148Y-74187616D01*
X131383648Y-75031116D01*
X131349000Y-75045468D01*
X131314352Y-75031116D01*
X131300000Y-74996468D01*
X131300000Y-74600000D01*
X131150000Y-74600000D01*
X131150000Y-75099999D01*
X131196469Y-75099999D01*
X131231117Y-75114351D01*
X131245469Y-75148999D01*
X131231117Y-75183647D01*
X130853481Y-75561283D01*
X130853480Y-75561283D01*
X130803360Y-75648095D01*
X130774423Y-75698212D01*
X130774421Y-75698218D01*
X130733499Y-75850940D01*
X130733499Y-76013000D01*
X130733500Y-76013013D01*
X130733500Y-76112233D01*
X130719148Y-76146881D01*
X130713597Y-76151658D01*
X130661849Y-76189849D01*
X130581208Y-76299114D01*
X130581204Y-76299123D01*
X130536353Y-76427300D01*
X130536353Y-76427301D01*
X130533500Y-76457724D01*
X130533500Y-77466275D01*
X130536353Y-77496698D01*
X130536353Y-77496699D01*
X130581204Y-77624876D01*
X130581208Y-77624885D01*
X130661849Y-77734150D01*
X130771114Y-77814791D01*
X130771117Y-77814792D01*
X130771118Y-77814793D01*
X130771120Y-77814793D01*
X130771123Y-77814795D01*
X130828929Y-77835022D01*
X130899301Y-77859646D01*
X130929734Y-77862500D01*
X130929744Y-77862500D01*
X131738256Y-77862500D01*
X131738266Y-77862500D01*
X131768699Y-77859646D01*
X131896882Y-77814793D01*
X131910882Y-77804461D01*
X132006150Y-77734150D01*
X132086791Y-77624885D01*
X132086791Y-77624884D01*
X132086793Y-77624882D01*
X132131646Y-77496699D01*
X132134500Y-77466266D01*
X132134500Y-76457734D01*
X132131646Y-76427301D01*
X132086793Y-76299118D01*
X132086792Y-76299117D01*
X132086791Y-76299114D01*
X132006154Y-76189855D01*
X132006147Y-76189847D01*
X132004339Y-76188513D01*
X132003622Y-76187323D01*
X132003556Y-76187257D01*
X132003572Y-76187240D01*
X131984986Y-76156390D01*
X131994016Y-76119990D01*
X131998784Y-76114449D01*
X133206681Y-74906553D01*
X133206686Y-74906549D01*
X133210714Y-74902520D01*
X133210716Y-74902520D01*
X133322520Y-74790716D01*
X133372639Y-74703904D01*
X133401577Y-74653785D01*
X133402048Y-74652026D01*
X133436377Y-74523910D01*
X133442501Y-74501058D01*
X133442501Y-74339938D01*
X133442500Y-74339928D01*
X133442500Y-73180252D01*
X133599500Y-73180252D01*
X133599500Y-75019748D01*
X133611133Y-75078231D01*
X133625678Y-75099999D01*
X133655447Y-75144552D01*
X133662103Y-75148999D01*
X133721769Y-75188867D01*
X133780252Y-75200500D01*
X133780255Y-75200500D01*
X134919745Y-75200500D01*
X134919748Y-75200500D01*
X134978231Y-75188867D01*
X135044552Y-75144552D01*
X135088867Y-75078231D01*
X135100500Y-75019748D01*
X135100500Y-73180252D01*
X135088867Y-73121769D01*
X135062301Y-73082012D01*
X135044552Y-73055447D01*
X135004795Y-73028882D01*
X134978231Y-73011133D01*
X134919748Y-72999500D01*
X133780252Y-72999500D01*
X133721769Y-73011133D01*
X133655447Y-73055447D01*
X133611133Y-73121769D01*
X133599500Y-73180252D01*
X133442500Y-73180252D01*
X133442500Y-72473013D01*
X133442501Y-72473000D01*
X133442501Y-72307947D01*
X133442500Y-72307929D01*
X133442500Y-69677031D01*
X133456852Y-69642383D01*
X134084383Y-69014852D01*
X134119031Y-69000500D01*
X134919745Y-69000500D01*
X134919748Y-69000500D01*
X134978231Y-68988867D01*
X135044552Y-68944552D01*
X135088867Y-68878231D01*
X135100500Y-68819748D01*
X135100500Y-66980252D01*
X135088867Y-66921769D01*
X135047380Y-66859680D01*
X135044552Y-66855447D01*
X135000879Y-66826266D01*
X134978231Y-66811133D01*
X134919748Y-66799500D01*
X133780252Y-66799500D01*
X133721769Y-66811133D01*
X133655447Y-66855447D01*
X133611281Y-66921548D01*
X133611133Y-66921769D01*
X133599500Y-66980252D01*
X133599500Y-66980255D01*
X133599500Y-67780968D01*
X133585148Y-67815616D01*
X132361482Y-69039281D01*
X132361480Y-69039284D01*
X132312787Y-69123624D01*
X132312784Y-69123630D01*
X132282422Y-69176216D01*
X132282421Y-69176218D01*
X132241499Y-69328940D01*
X132241499Y-69491000D01*
X132241500Y-69491013D01*
X132241500Y-70835620D01*
X132236605Y-70847436D01*
X132234936Y-70860119D01*
X132229681Y-70864150D01*
X132227148Y-70870268D01*
X132215331Y-70875162D01*
X132205183Y-70882950D01*
X132198617Y-70882085D01*
X132192500Y-70884620D01*
X132168001Y-70878056D01*
X132136932Y-70860119D01*
X132107904Y-70843360D01*
X132057785Y-70814423D01*
X132057784Y-70814422D01*
X132057783Y-70814422D01*
X132057781Y-70814421D01*
X131905060Y-70773499D01*
X131905057Y-70773499D01*
X131746943Y-70773499D01*
X131743946Y-70773499D01*
X131743930Y-70773500D01*
X126385457Y-70773500D01*
X126372775Y-70771830D01*
X126361943Y-70768927D01*
X126321159Y-70757999D01*
X126321157Y-70757999D01*
X126163043Y-70757999D01*
X126160046Y-70757999D01*
X126160030Y-70758000D01*
X125895060Y-70758000D01*
X125860412Y-70743648D01*
X125848279Y-70723577D01*
X125800079Y-70568896D01*
X125800079Y-70568895D01*
X125712072Y-70423315D01*
X125591784Y-70303027D01*
X125446204Y-70215020D01*
X125283801Y-70164414D01*
X125251714Y-70161498D01*
X125213216Y-70158000D01*
X123349984Y-70158000D01*
X123314694Y-70161207D01*
X123279398Y-70164414D01*
X123116996Y-70215020D01*
X123116995Y-70215020D01*
X122971415Y-70303027D01*
X122851127Y-70423315D01*
X122763120Y-70568895D01*
X122763120Y-70568896D01*
X122712514Y-70731298D01*
X122710598Y-70752387D01*
X122706100Y-70801884D01*
X122520500Y-70801884D01*
X122520500Y-70373031D01*
X122534852Y-70338383D01*
X123884369Y-68988866D01*
X125245160Y-67628074D01*
X125279807Y-67613723D01*
X125314455Y-67628075D01*
X125328807Y-67662723D01*
X125328388Y-67669114D01*
X125299500Y-67888543D01*
X125299500Y-68111457D01*
X125328596Y-68332463D01*
X125328597Y-68332467D01*
X125328598Y-68332474D01*
X125386288Y-68547776D01*
X125386290Y-68547782D01*
X125471595Y-68753727D01*
X125583050Y-68946771D01*
X125583060Y-68946786D01*
X125718748Y-69123618D01*
X125718758Y-69123630D01*
X125876369Y-69281241D01*
X125876381Y-69281251D01*
X126053213Y-69416939D01*
X126053222Y-69416945D01*
X126053226Y-69416948D01*
X126246274Y-69528405D01*
X126452219Y-69613710D01*
X126452223Y-69613711D01*
X126667525Y-69671401D01*
X126667526Y-69671401D01*
X126667537Y-69671404D01*
X126888543Y-69700500D01*
X126888547Y-69700500D01*
X127111453Y-69700500D01*
X127111457Y-69700500D01*
X127332463Y-69671404D01*
X127547781Y-69613710D01*
X127753726Y-69528405D01*
X127946774Y-69416948D01*
X128123624Y-69281247D01*
X128281247Y-69123624D01*
X128416948Y-68946774D01*
X128528405Y-68753726D01*
X128613710Y-68547781D01*
X128671404Y-68332463D01*
X128700500Y-68111457D01*
X128700500Y-67888543D01*
X128671404Y-67667537D01*
X128658563Y-67619615D01*
X128613711Y-67452223D01*
X128613709Y-67452217D01*
X128606236Y-67434174D01*
X128528405Y-67246274D01*
X128514148Y-67221581D01*
X128416949Y-67053228D01*
X128416938Y-67053212D01*
X128381996Y-67007674D01*
X128360954Y-66980252D01*
X129899500Y-66980252D01*
X129899500Y-68819748D01*
X129911133Y-68878231D01*
X129928882Y-68904795D01*
X129955447Y-68944552D01*
X129982012Y-68962301D01*
X130021769Y-68988867D01*
X130080252Y-69000500D01*
X130080255Y-69000500D01*
X131219745Y-69000500D01*
X131219748Y-69000500D01*
X131278231Y-68988867D01*
X131344552Y-68944552D01*
X131388867Y-68878231D01*
X131400500Y-68819748D01*
X131400500Y-66980252D01*
X131388867Y-66921769D01*
X131347380Y-66859680D01*
X131344552Y-66855447D01*
X131300879Y-66826266D01*
X131278231Y-66811133D01*
X131219748Y-66799500D01*
X130080252Y-66799500D01*
X130021769Y-66811133D01*
X129955447Y-66855447D01*
X129911281Y-66921548D01*
X129911133Y-66921769D01*
X129899500Y-66980252D01*
X128360954Y-66980252D01*
X128281251Y-66876381D01*
X128281241Y-66876369D01*
X128123630Y-66718758D01*
X128123618Y-66718748D01*
X127946786Y-66583060D01*
X127946771Y-66583050D01*
X127753726Y-66471595D01*
X127753727Y-66471595D01*
X127547782Y-66386290D01*
X127547776Y-66386288D01*
X127332474Y-66328598D01*
X127332467Y-66328597D01*
X127332463Y-66328596D01*
X127111457Y-66299500D01*
X126888543Y-66299500D01*
X126667537Y-66328596D01*
X126667533Y-66328596D01*
X126667525Y-66328598D01*
X126452223Y-66386288D01*
X126452217Y-66386290D01*
X126246272Y-66471595D01*
X126053228Y-66583050D01*
X126053213Y-66583060D01*
X125876381Y-66718748D01*
X125876369Y-66718758D01*
X125718758Y-66876369D01*
X125718748Y-66876381D01*
X125640374Y-66978520D01*
X125607896Y-66997272D01*
X125571671Y-66987565D01*
X125552919Y-66955087D01*
X125552500Y-66948691D01*
X125552500Y-65962340D01*
X125552499Y-65962339D01*
X125511578Y-65809620D01*
X125511577Y-65809616D01*
X125509063Y-65805262D01*
X125502500Y-65780765D01*
X125502500Y-65396345D01*
X126102101Y-65396345D01*
X126107902Y-65425518D01*
X126107904Y-65425522D01*
X126130004Y-65458597D01*
X126163080Y-65480697D01*
X126192253Y-65486499D01*
X126302099Y-65486499D01*
X127202100Y-65486499D01*
X127311945Y-65486499D01*
X127311945Y-65486498D01*
X127341118Y-65480697D01*
X127341122Y-65480695D01*
X127374197Y-65458595D01*
X127396297Y-65425519D01*
X127402100Y-65396345D01*
X127402100Y-65386500D01*
X127202100Y-65386500D01*
X127202100Y-65486499D01*
X126302099Y-65486499D01*
X126302100Y-65486498D01*
X126302100Y-65386500D01*
X126102101Y-65386500D01*
X126102101Y-65396345D01*
X125502500Y-65396345D01*
X125502500Y-64917655D01*
X125502500Y-64917652D01*
X125490867Y-64859169D01*
X125452000Y-64801001D01*
X125446552Y-64792847D01*
X125406795Y-64766282D01*
X125380231Y-64748533D01*
X125321748Y-64736900D01*
X124582252Y-64736900D01*
X124523769Y-64748533D01*
X124479223Y-64778298D01*
X124442441Y-64785614D01*
X124424777Y-64778298D01*
X124415646Y-64772197D01*
X124380231Y-64748533D01*
X124321748Y-64736900D01*
X123582252Y-64736900D01*
X123523769Y-64748533D01*
X123479223Y-64778298D01*
X123442441Y-64785614D01*
X123424777Y-64778298D01*
X123415646Y-64772197D01*
X123380231Y-64748533D01*
X123321748Y-64736900D01*
X122582252Y-64736900D01*
X122523769Y-64748533D01*
X122457447Y-64792847D01*
X122413133Y-64859169D01*
X122401500Y-64917652D01*
X122401500Y-64917655D01*
X122401500Y-65338000D01*
X122387148Y-65372648D01*
X122352500Y-65387000D01*
X121822696Y-65387000D01*
X121821489Y-65386500D01*
X120606031Y-65386500D01*
X120571383Y-65372148D01*
X119675889Y-64476654D01*
X120501900Y-64476654D01*
X120501900Y-64486500D01*
X120701900Y-64486500D01*
X121601900Y-64486500D01*
X121801899Y-64486500D01*
X121801899Y-64476655D01*
X121801898Y-64476654D01*
X121796097Y-64447481D01*
X121796095Y-64447477D01*
X121773995Y-64414402D01*
X121740919Y-64392302D01*
X121711746Y-64386500D01*
X121601900Y-64386500D01*
X121601900Y-64486500D01*
X120701900Y-64486500D01*
X120701900Y-64386500D01*
X120592055Y-64386500D01*
X120592054Y-64386501D01*
X120562881Y-64392302D01*
X120562877Y-64392304D01*
X120529802Y-64414404D01*
X120507702Y-64447480D01*
X120501900Y-64476654D01*
X119675889Y-64476654D01*
X119068852Y-63869617D01*
X119054500Y-63834969D01*
X119054500Y-63767701D01*
X121750400Y-63767701D01*
X121750400Y-63905698D01*
X121777317Y-64041018D01*
X121777320Y-64041029D01*
X121830123Y-64168507D01*
X121830125Y-64168511D01*
X121861037Y-64214774D01*
X121906783Y-64283239D01*
X122004360Y-64380816D01*
X122047432Y-64409595D01*
X122119089Y-64457475D01*
X122246572Y-64510280D01*
X122246578Y-64510281D01*
X122246581Y-64510282D01*
X122381901Y-64537199D01*
X122381907Y-64537200D01*
X122519893Y-64537200D01*
X122655228Y-64510280D01*
X122782711Y-64457475D01*
X122897442Y-64380814D01*
X122995014Y-64283242D01*
X123071675Y-64168511D01*
X123124480Y-64041028D01*
X123151400Y-63905693D01*
X123151400Y-63767707D01*
X123151399Y-63767701D01*
X124752600Y-63767701D01*
X124752600Y-63905698D01*
X124779517Y-64041018D01*
X124779520Y-64041029D01*
X124832323Y-64168507D01*
X124832325Y-64168511D01*
X124863237Y-64214774D01*
X124908983Y-64283239D01*
X125006560Y-64380816D01*
X125049632Y-64409595D01*
X125121289Y-64457475D01*
X125248772Y-64510280D01*
X125248778Y-64510281D01*
X125248781Y-64510282D01*
X125384101Y-64537199D01*
X125384107Y-64537200D01*
X125522093Y-64537200D01*
X125657428Y-64510280D01*
X125738609Y-64476654D01*
X126102100Y-64476654D01*
X126102100Y-64486500D01*
X126302100Y-64486500D01*
X127202100Y-64486500D01*
X127402099Y-64486500D01*
X127402099Y-64476655D01*
X127402098Y-64476654D01*
X127396297Y-64447481D01*
X127396295Y-64447477D01*
X127374195Y-64414402D01*
X127341119Y-64392302D01*
X127311946Y-64386500D01*
X127202100Y-64386500D01*
X127202100Y-64486500D01*
X126302100Y-64486500D01*
X126302100Y-64386500D01*
X126192255Y-64386500D01*
X126192254Y-64386501D01*
X126163081Y-64392302D01*
X126163077Y-64392304D01*
X126130002Y-64414404D01*
X126107902Y-64447480D01*
X126102100Y-64476654D01*
X125738609Y-64476654D01*
X125784911Y-64457475D01*
X125899642Y-64380814D01*
X125997214Y-64283242D01*
X126073875Y-64168511D01*
X126126680Y-64041028D01*
X126153600Y-63905693D01*
X126153600Y-63767707D01*
X126126680Y-63632372D01*
X126073875Y-63504889D01*
X126024382Y-63430818D01*
X125997216Y-63390160D01*
X125899639Y-63292583D01*
X125799573Y-63225722D01*
X125784911Y-63215925D01*
X125784906Y-63215923D01*
X125774648Y-63211674D01*
X125774647Y-63211673D01*
X125738125Y-63196545D01*
X126102101Y-63196545D01*
X126107902Y-63225718D01*
X126107904Y-63225722D01*
X126130004Y-63258797D01*
X126163080Y-63280897D01*
X126192253Y-63286699D01*
X126302099Y-63286699D01*
X127202100Y-63286699D01*
X127311945Y-63286699D01*
X127311945Y-63286698D01*
X127341118Y-63280897D01*
X127341122Y-63280895D01*
X127374197Y-63258795D01*
X127396297Y-63225719D01*
X127402100Y-63196545D01*
X127402100Y-63186700D01*
X127202100Y-63186700D01*
X127202100Y-63286699D01*
X126302099Y-63286699D01*
X126302100Y-63286698D01*
X126302100Y-63186700D01*
X126102101Y-63186700D01*
X126102101Y-63196545D01*
X125738125Y-63196545D01*
X125657429Y-63163120D01*
X125657418Y-63163117D01*
X125522098Y-63136200D01*
X125522093Y-63136200D01*
X125384107Y-63136200D01*
X125384101Y-63136200D01*
X125248781Y-63163117D01*
X125248770Y-63163120D01*
X125121292Y-63215923D01*
X125006560Y-63292583D01*
X124908983Y-63390160D01*
X124832323Y-63504892D01*
X124779520Y-63632370D01*
X124779517Y-63632381D01*
X124752600Y-63767701D01*
X123151399Y-63767701D01*
X123124480Y-63632372D01*
X123071675Y-63504889D01*
X123022182Y-63430818D01*
X122995016Y-63390160D01*
X122897439Y-63292583D01*
X122797373Y-63225722D01*
X122782711Y-63215925D01*
X122782708Y-63215923D01*
X122782707Y-63215923D01*
X122655229Y-63163120D01*
X122655218Y-63163117D01*
X122519898Y-63136200D01*
X122519893Y-63136200D01*
X122381907Y-63136200D01*
X122381901Y-63136200D01*
X122246581Y-63163117D01*
X122246570Y-63163120D01*
X122119092Y-63215923D01*
X122004360Y-63292583D01*
X121906783Y-63390160D01*
X121830123Y-63504892D01*
X121777320Y-63632370D01*
X121777317Y-63632381D01*
X121750400Y-63767701D01*
X119054500Y-63767701D01*
X119054500Y-63660387D01*
X119054500Y-63660384D01*
X119017973Y-63476749D01*
X119012814Y-63464295D01*
X118946324Y-63303774D01*
X118946322Y-63303769D01*
X118874677Y-63196545D01*
X120501901Y-63196545D01*
X120507702Y-63225718D01*
X120507704Y-63225722D01*
X120529804Y-63258797D01*
X120562880Y-63280897D01*
X120592053Y-63286699D01*
X120701899Y-63286699D01*
X121601900Y-63286699D01*
X121711745Y-63286699D01*
X121711745Y-63286698D01*
X121740918Y-63280897D01*
X121740922Y-63280895D01*
X121773997Y-63258795D01*
X121796097Y-63225719D01*
X121801900Y-63196545D01*
X121801900Y-63186700D01*
X121601900Y-63186700D01*
X121601900Y-63286699D01*
X120701899Y-63286699D01*
X120701900Y-63286698D01*
X120701900Y-63186700D01*
X120501901Y-63186700D01*
X120501901Y-63196545D01*
X118874677Y-63196545D01*
X118842302Y-63148092D01*
X118709908Y-63015698D01*
X118554231Y-62911678D01*
X118554227Y-62911676D01*
X118554225Y-62911675D01*
X118381258Y-62840029D01*
X118381248Y-62840026D01*
X118307194Y-62825296D01*
X118197616Y-62803500D01*
X118010384Y-62803500D01*
X117918986Y-62821680D01*
X117826751Y-62840026D01*
X117826741Y-62840029D01*
X117653774Y-62911675D01*
X117653770Y-62911677D01*
X117653769Y-62911678D01*
X117650239Y-62914037D01*
X117498092Y-63015697D01*
X117365697Y-63148092D01*
X117291729Y-63258795D01*
X117273085Y-63286698D01*
X117261675Y-63303774D01*
X117190029Y-63476741D01*
X117190026Y-63476751D01*
X117184429Y-63504892D01*
X117153500Y-63660384D01*
X117153500Y-63847616D01*
X117177740Y-63969479D01*
X117190026Y-64031248D01*
X117190029Y-64031258D01*
X117261675Y-64204225D01*
X117261676Y-64204227D01*
X117261678Y-64204231D01*
X117365698Y-64359908D01*
X117498092Y-64492302D01*
X117653769Y-64596322D01*
X117653774Y-64596324D01*
X117826741Y-64667970D01*
X117826743Y-64667970D01*
X117826749Y-64667973D01*
X118010384Y-64704500D01*
X118010387Y-64704500D01*
X118184969Y-64704500D01*
X118219617Y-64718852D01*
X119855264Y-66354499D01*
X119855269Y-66354505D01*
X119856980Y-66356216D01*
X119968784Y-66468020D01*
X119968787Y-66468021D01*
X119968790Y-66468024D01*
X120045693Y-66512423D01*
X120105712Y-66547076D01*
X120105718Y-66547078D01*
X120258440Y-66588001D01*
X120261000Y-66588001D01*
X120295648Y-66602353D01*
X120310000Y-66637001D01*
X120310000Y-67000000D01*
X120663999Y-67000000D01*
X120663999Y-66736155D01*
X120663998Y-66736154D01*
X120658197Y-66706981D01*
X120658195Y-66706977D01*
X120636095Y-66673902D01*
X120633841Y-66671648D01*
X120619489Y-66637000D01*
X120633841Y-66602352D01*
X120668489Y-66588000D01*
X121586943Y-66588000D01*
X122352500Y-66588000D01*
X122387148Y-66602352D01*
X122401500Y-66637000D01*
X122401500Y-66657148D01*
X122413133Y-66715631D01*
X122426846Y-66736154D01*
X122457447Y-66781952D01*
X122468271Y-66789184D01*
X122523769Y-66826267D01*
X122582252Y-66837900D01*
X122582255Y-66837900D01*
X123321745Y-66837900D01*
X123321748Y-66837900D01*
X123380231Y-66826267D01*
X123424778Y-66796500D01*
X123461559Y-66789184D01*
X123479219Y-66796499D01*
X123523769Y-66826267D01*
X123582252Y-66837900D01*
X123582255Y-66837900D01*
X124218567Y-66837900D01*
X124253215Y-66852252D01*
X124267567Y-66886900D01*
X124253215Y-66921548D01*
X121551285Y-69623479D01*
X121551284Y-69623480D01*
X121442274Y-69732489D01*
X121442271Y-69732492D01*
X120535284Y-70639481D01*
X118820632Y-72354131D01*
X118785984Y-72368483D01*
X118751336Y-72354131D01*
X118740075Y-72336610D01*
X118704628Y-72241574D01*
X118622687Y-72132113D01*
X118513226Y-72050172D01*
X118513225Y-72050171D01*
X118513223Y-72050170D01*
X118385118Y-72002389D01*
X118385110Y-72002387D01*
X118328491Y-71996300D01*
X117687509Y-71996300D01*
X117630889Y-72002386D01*
X117630881Y-72002389D01*
X117502776Y-72050170D01*
X117502772Y-72050173D01*
X117393313Y-72132113D01*
X117311373Y-72241572D01*
X117311370Y-72241576D01*
X117263589Y-72369681D01*
X117263587Y-72369689D01*
X117257500Y-72426308D01*
X117257500Y-74467290D01*
X117263586Y-74523910D01*
X117263589Y-74523918D01*
X117311370Y-74652023D01*
X117311372Y-74652026D01*
X117393313Y-74761487D01*
X117502774Y-74843428D01*
X117502775Y-74843428D01*
X117502776Y-74843429D01*
X117542553Y-74858265D01*
X117630886Y-74891212D01*
X117687515Y-74897300D01*
X118328484Y-74897299D01*
X118328490Y-74897299D01*
X118385110Y-74891213D01*
X118385112Y-74891212D01*
X118385114Y-74891212D01*
X118513226Y-74843428D01*
X118622687Y-74761487D01*
X118704628Y-74652026D01*
X118752412Y-74523914D01*
X118758500Y-74467285D01*
X118758499Y-74057502D01*
X118772851Y-74022855D01*
X118794815Y-74010173D01*
X118808985Y-74006377D01*
X118902969Y-73952115D01*
X118945916Y-73927320D01*
X119057720Y-73815516D01*
X119057720Y-73815514D01*
X119061749Y-73811486D01*
X119061752Y-73811481D01*
X121235853Y-71637381D01*
X121270500Y-71623030D01*
X121305148Y-71637382D01*
X121319500Y-71672030D01*
X121319500Y-92373929D01*
X121319499Y-92373947D01*
X121319499Y-92535059D01*
X121360421Y-92687781D01*
X121360422Y-92687783D01*
X121360423Y-92687785D01*
X121389115Y-92737480D01*
X121439480Y-92824716D01*
X121439482Y-92824718D01*
X121554074Y-92939310D01*
X121554080Y-92939315D01*
X121677148Y-93062383D01*
X121691500Y-93097031D01*
X121691500Y-93460393D01*
X121677148Y-93495041D01*
X121642500Y-93509393D01*
X121607852Y-93495041D01*
X119740852Y-91628041D01*
X119726500Y-91593393D01*
X119726500Y-79585013D01*
X119726501Y-79585000D01*
X119726501Y-79422940D01*
X119685578Y-79270218D01*
X119685576Y-79270212D01*
X119650976Y-79210285D01*
X119606520Y-79133284D01*
X119494716Y-79021480D01*
X119493010Y-79019774D01*
X119492999Y-79019764D01*
X118593315Y-78120080D01*
X118593313Y-78120077D01*
X118478718Y-78005482D01*
X118478712Y-78005477D01*
X118424860Y-77974387D01*
X118391904Y-77955360D01*
X118341785Y-77926423D01*
X118341784Y-77926422D01*
X118341783Y-77926422D01*
X118341781Y-77926421D01*
X118189060Y-77885499D01*
X118189057Y-77885499D01*
X118030943Y-77885499D01*
X118027946Y-77885499D01*
X118027930Y-77885500D01*
X116506940Y-77885500D01*
X116354216Y-77926422D01*
X116354213Y-77926423D01*
X116304095Y-77955360D01*
X116217283Y-78005480D01*
X116217283Y-78005481D01*
X116105478Y-78117286D01*
X115224963Y-78997800D01*
X115190315Y-79012152D01*
X115180757Y-79011211D01*
X115177949Y-79010652D01*
X115156065Y-79006300D01*
X114949135Y-79006300D01*
X114893247Y-79017416D01*
X114856465Y-79010098D01*
X114849041Y-79004005D01*
X114406852Y-78561816D01*
X114392500Y-78527168D01*
X114392500Y-74206800D01*
X114818000Y-74206800D01*
X114818000Y-74457390D01*
X114828620Y-74530280D01*
X114828620Y-74530281D01*
X114883586Y-74642714D01*
X114883588Y-74642718D01*
X114972081Y-74731211D01*
X114972085Y-74731213D01*
X115084519Y-74786179D01*
X115157410Y-74796800D01*
X115778590Y-74796800D01*
X115851480Y-74786179D01*
X115851481Y-74786179D01*
X115963914Y-74731213D01*
X115963918Y-74731211D01*
X116052411Y-74642718D01*
X116052413Y-74642714D01*
X116107379Y-74530281D01*
X116107379Y-74530280D01*
X116118000Y-74457390D01*
X116118000Y-74206800D01*
X115854095Y-74470705D01*
X115819447Y-74485057D01*
X115784799Y-74470705D01*
X115468000Y-74153906D01*
X115151201Y-74470705D01*
X115116553Y-74485057D01*
X115081905Y-74470705D01*
X114818000Y-74206800D01*
X114392500Y-74206800D01*
X114392500Y-72436209D01*
X114818000Y-72436209D01*
X114818000Y-72686799D01*
X115081905Y-72422895D01*
X115116553Y-72408543D01*
X115151201Y-72422895D01*
X115468000Y-72739694D01*
X115784799Y-72422895D01*
X115819447Y-72408543D01*
X115854095Y-72422895D01*
X116118000Y-72686800D01*
X116118000Y-72436209D01*
X116107379Y-72363319D01*
X116107379Y-72363318D01*
X116052413Y-72250885D01*
X116052411Y-72250881D01*
X115963918Y-72162388D01*
X115963914Y-72162386D01*
X115851480Y-72107420D01*
X115778590Y-72096800D01*
X115157410Y-72096800D01*
X115084519Y-72107420D01*
X115084518Y-72107420D01*
X114972085Y-72162386D01*
X114972081Y-72162388D01*
X114883588Y-72250881D01*
X114883586Y-72250885D01*
X114828620Y-72363318D01*
X114828620Y-72363319D01*
X114818000Y-72436209D01*
X114392500Y-72436209D01*
X114392500Y-71247031D01*
X114406852Y-71212383D01*
X117150383Y-68468852D01*
X117185031Y-68454500D01*
X117364009Y-68454500D01*
X117364010Y-68454500D01*
X117548417Y-68417819D01*
X117722125Y-68345867D01*
X117844879Y-68263845D01*
X118956001Y-68263845D01*
X118961802Y-68293018D01*
X118961804Y-68293022D01*
X118983904Y-68326097D01*
X119016980Y-68348197D01*
X119046154Y-68353999D01*
X119309999Y-68353999D01*
X120310000Y-68353999D01*
X120573845Y-68353999D01*
X120573845Y-68353998D01*
X120603018Y-68348197D01*
X120603022Y-68348195D01*
X120636097Y-68326095D01*
X120658197Y-68293019D01*
X120664000Y-68263845D01*
X120664000Y-68000000D01*
X120310000Y-68000000D01*
X120310000Y-68353999D01*
X119309999Y-68353999D01*
X119310000Y-68353998D01*
X119310000Y-68000000D01*
X118956001Y-68000000D01*
X118956001Y-68263845D01*
X117844879Y-68263845D01*
X117878458Y-68241408D01*
X118011408Y-68108458D01*
X118115867Y-67952125D01*
X118187819Y-67778417D01*
X118224500Y-67594010D01*
X118224500Y-67434174D01*
X119310000Y-67434174D01*
X119310000Y-67565826D01*
X119344075Y-67692993D01*
X119409901Y-67807007D01*
X119502993Y-67900099D01*
X119617007Y-67965925D01*
X119744174Y-68000000D01*
X119875826Y-68000000D01*
X120002993Y-67965925D01*
X120117007Y-67900099D01*
X120210099Y-67807007D01*
X120275925Y-67692993D01*
X120310000Y-67565826D01*
X120310000Y-67434174D01*
X120275925Y-67307007D01*
X120210099Y-67192993D01*
X120117007Y-67099901D01*
X120002993Y-67034075D01*
X119875826Y-67000000D01*
X119744174Y-67000000D01*
X119617007Y-67034075D01*
X119502993Y-67099901D01*
X119409901Y-67192993D01*
X119344075Y-67307007D01*
X119310000Y-67434174D01*
X118224500Y-67434174D01*
X118224500Y-67405990D01*
X118222633Y-67396602D01*
X118187821Y-67221592D01*
X118187818Y-67221581D01*
X118115867Y-67047875D01*
X118031605Y-66921769D01*
X118011410Y-66891544D01*
X117878455Y-66758589D01*
X117844878Y-66736154D01*
X118956000Y-66736154D01*
X118956000Y-67000000D01*
X119310000Y-67000000D01*
X119310000Y-66646000D01*
X119046155Y-66646000D01*
X119046154Y-66646001D01*
X119016981Y-66651802D01*
X119016977Y-66651804D01*
X118983902Y-66673904D01*
X118961802Y-66706980D01*
X118956000Y-66736154D01*
X117844878Y-66736154D01*
X117751711Y-66673902D01*
X117722125Y-66654133D01*
X117722122Y-66654131D01*
X117722121Y-66654131D01*
X117548418Y-66582181D01*
X117548407Y-66582178D01*
X117364015Y-66545500D01*
X117364010Y-66545500D01*
X117175990Y-66545500D01*
X117175984Y-66545500D01*
X116991592Y-66582178D01*
X116991581Y-66582181D01*
X116817878Y-66654131D01*
X116661544Y-66758589D01*
X116528589Y-66891544D01*
X116424131Y-67047878D01*
X116352181Y-67221581D01*
X116352178Y-67221592D01*
X116315500Y-67405984D01*
X116315500Y-67584967D01*
X116301148Y-67619615D01*
X113423286Y-70497478D01*
X113311481Y-70609283D01*
X113311480Y-70609283D01*
X113261360Y-70696095D01*
X113232423Y-70746212D01*
X113232421Y-70746218D01*
X113191499Y-70898940D01*
X113191499Y-71061000D01*
X113191500Y-71061013D01*
X113191500Y-78714129D01*
X113191499Y-78714147D01*
X113191499Y-78875259D01*
X113232421Y-79027981D01*
X113232423Y-79027987D01*
X113249494Y-79057553D01*
X113249497Y-79057557D01*
X113311475Y-79164909D01*
X113311482Y-79164918D01*
X113426074Y-79279510D01*
X113426080Y-79279515D01*
X113999805Y-79853241D01*
X114014157Y-79887889D01*
X114013215Y-79897447D01*
X114002100Y-79953335D01*
X114002100Y-80160265D01*
X114015802Y-80229149D01*
X114042469Y-80363217D01*
X114042471Y-80363223D01*
X114105609Y-80515651D01*
X114121659Y-80554398D01*
X114236623Y-80726455D01*
X114382945Y-80872777D01*
X114555002Y-80987741D01*
X114746180Y-81066930D01*
X114949135Y-81107300D01*
X114949138Y-81107300D01*
X115156062Y-81107300D01*
X115156065Y-81107300D01*
X115359020Y-81066930D01*
X115550198Y-80987741D01*
X115722255Y-80872777D01*
X115868577Y-80726455D01*
X115983541Y-80554398D01*
X116062730Y-80363220D01*
X116103100Y-80160265D01*
X116103100Y-79953335D01*
X116085777Y-79866251D01*
X116093092Y-79829472D01*
X116099182Y-79822051D01*
X116519778Y-79401455D01*
X116554426Y-79387104D01*
X116589074Y-79401456D01*
X116603426Y-79436104D01*
X116595168Y-79463326D01*
X116569059Y-79502400D01*
X116569059Y-79502401D01*
X116489871Y-79693576D01*
X116489869Y-79693582D01*
X116475046Y-79768104D01*
X116449500Y-79896535D01*
X116449500Y-80103465D01*
X116474500Y-80229149D01*
X116489869Y-80306417D01*
X116489871Y-80306423D01*
X116569058Y-80497596D01*
X116569059Y-80497598D01*
X116684023Y-80669655D01*
X116830345Y-80815977D01*
X117002402Y-80930941D01*
X117193580Y-81010130D01*
X117396535Y-81050500D01*
X117396538Y-81050500D01*
X117603462Y-81050500D01*
X117603465Y-81050500D01*
X117806420Y-81010130D01*
X117997598Y-80930941D01*
X118169655Y-80815977D01*
X118315977Y-80669655D01*
X118430941Y-80497598D01*
X118431228Y-80496903D01*
X118431408Y-80496723D01*
X118432078Y-80495471D01*
X118432457Y-80495674D01*
X118457744Y-80470383D01*
X118495247Y-80470379D01*
X118521768Y-80496895D01*
X118525500Y-80515651D01*
X118525500Y-82024348D01*
X118511148Y-82058996D01*
X118476500Y-82073348D01*
X118441852Y-82058996D01*
X118432156Y-82044487D01*
X118432078Y-82044529D01*
X118431652Y-82043733D01*
X118431231Y-82043103D01*
X118430941Y-82042402D01*
X118315977Y-81870345D01*
X118169655Y-81724023D01*
X118117062Y-81688882D01*
X118039416Y-81637001D01*
X117997598Y-81609059D01*
X117910260Y-81572882D01*
X117806423Y-81529871D01*
X117806417Y-81529869D01*
X117724572Y-81513589D01*
X117603465Y-81489500D01*
X117396535Y-81489500D01*
X117314966Y-81505725D01*
X117193582Y-81529869D01*
X117193576Y-81529871D01*
X117002403Y-81609058D01*
X116830345Y-81724022D01*
X116684022Y-81870345D01*
X116569058Y-82042403D01*
X116489871Y-82233576D01*
X116489869Y-82233582D01*
X116475046Y-82308104D01*
X116449500Y-82436535D01*
X116449500Y-82643465D01*
X116471360Y-82753363D01*
X116489869Y-82846417D01*
X116489871Y-82846423D01*
X116569058Y-83037596D01*
X116569059Y-83037598D01*
X116684023Y-83209655D01*
X116830345Y-83355977D01*
X117002402Y-83470941D01*
X117193580Y-83550130D01*
X117396535Y-83590500D01*
X117396538Y-83590500D01*
X117603462Y-83590500D01*
X117603465Y-83590500D01*
X117806420Y-83550130D01*
X117997598Y-83470941D01*
X118169655Y-83355977D01*
X118315977Y-83209655D01*
X118430941Y-83037598D01*
X118431228Y-83036903D01*
X118431408Y-83036723D01*
X118432078Y-83035471D01*
X118432457Y-83035674D01*
X118457744Y-83010383D01*
X118495247Y-83010379D01*
X118521768Y-83036895D01*
X118525500Y-83055651D01*
X118525500Y-84564348D01*
X118511148Y-84598996D01*
X118476500Y-84613348D01*
X118441852Y-84598996D01*
X118432156Y-84584487D01*
X118432078Y-84584529D01*
X118431652Y-84583733D01*
X118431231Y-84583103D01*
X118430941Y-84582402D01*
X118315977Y-84410345D01*
X118169655Y-84264023D01*
X117997598Y-84149059D01*
X117951586Y-84130000D01*
X117806423Y-84069871D01*
X117806417Y-84069869D01*
X117708044Y-84050302D01*
X117603465Y-84029500D01*
X117396535Y-84029500D01*
X117295520Y-84049592D01*
X117193582Y-84069869D01*
X117193576Y-84069871D01*
X117002403Y-84149058D01*
X116830345Y-84264022D01*
X116684022Y-84410345D01*
X116569058Y-84582403D01*
X116489871Y-84773576D01*
X116489869Y-84773582D01*
X116475046Y-84848104D01*
X116449500Y-84976535D01*
X116449500Y-85183465D01*
X116453183Y-85201979D01*
X116489869Y-85386417D01*
X116489871Y-85386423D01*
X116569058Y-85577596D01*
X116569059Y-85577598D01*
X116684023Y-85749655D01*
X116830345Y-85895977D01*
X117002402Y-86010941D01*
X117193580Y-86090130D01*
X117396535Y-86130500D01*
X117396538Y-86130500D01*
X117603462Y-86130500D01*
X117603465Y-86130500D01*
X117806420Y-86090130D01*
X117997598Y-86010941D01*
X118169655Y-85895977D01*
X118315977Y-85749655D01*
X118430941Y-85577598D01*
X118431228Y-85576903D01*
X118431408Y-85576723D01*
X118432078Y-85575471D01*
X118432457Y-85575674D01*
X118457744Y-85550383D01*
X118495247Y-85550379D01*
X118521768Y-85576895D01*
X118525500Y-85595651D01*
X118525500Y-87104348D01*
X118511148Y-87138996D01*
X118476500Y-87153348D01*
X118441852Y-87138996D01*
X118432156Y-87124487D01*
X118432078Y-87124529D01*
X118431652Y-87123733D01*
X118431231Y-87123103D01*
X118430941Y-87122402D01*
X118315977Y-86950345D01*
X118169655Y-86804023D01*
X117997598Y-86689059D01*
X117871041Y-86636637D01*
X117806423Y-86609871D01*
X117806417Y-86609869D01*
X117724572Y-86593589D01*
X117603465Y-86569500D01*
X117396535Y-86569500D01*
X117310949Y-86586524D01*
X117193582Y-86609869D01*
X117193576Y-86609871D01*
X117002403Y-86689058D01*
X116830345Y-86804022D01*
X116684022Y-86950345D01*
X116569058Y-87122403D01*
X116489871Y-87313576D01*
X116489869Y-87313582D01*
X116475046Y-87388104D01*
X116449500Y-87516535D01*
X116449500Y-87723465D01*
X116453183Y-87741979D01*
X116489869Y-87926417D01*
X116489871Y-87926423D01*
X116569058Y-88117596D01*
X116684022Y-88289654D01*
X116830345Y-88435977D01*
X116830349Y-88435980D01*
X116877722Y-88467633D01*
X116898558Y-88498815D01*
X116899500Y-88508375D01*
X116899500Y-88732969D01*
X116885148Y-88767617D01*
X111748617Y-93904148D01*
X111713969Y-93918500D01*
X110266689Y-93918500D01*
X110232041Y-93904148D01*
X110217689Y-93869500D01*
X110220439Y-93853316D01*
X110230405Y-93824833D01*
X110255646Y-93752699D01*
X110258500Y-93722266D01*
X110258500Y-93243276D01*
X110265065Y-93218776D01*
X110287576Y-93179786D01*
X110287578Y-93179780D01*
X110328501Y-93027059D01*
X110328501Y-92865946D01*
X110328500Y-92865928D01*
X110328500Y-88292914D01*
X110328501Y-88292901D01*
X110328501Y-88130841D01*
X110311203Y-88066290D01*
X110287577Y-87978116D01*
X110287576Y-87978114D01*
X110287576Y-87978113D01*
X110208524Y-87841190D01*
X110208521Y-87841187D01*
X110208520Y-87841184D01*
X109684618Y-87317282D01*
X109670266Y-87282634D01*
X109672483Y-87268062D01*
X109683400Y-87233031D01*
X109685685Y-87225700D01*
X109685685Y-87225698D01*
X109685686Y-87225696D01*
X109692100Y-87155116D01*
X109692100Y-86041884D01*
X109685686Y-85971304D01*
X109685685Y-85971301D01*
X109685685Y-85971298D01*
X109635079Y-85808896D01*
X109635079Y-85808895D01*
X109547072Y-85663315D01*
X109426784Y-85543027D01*
X109281204Y-85455020D01*
X109118801Y-85404414D01*
X109086714Y-85401498D01*
X109048216Y-85398000D01*
X107184984Y-85398000D01*
X107149694Y-85401207D01*
X107114398Y-85404414D01*
X106951996Y-85455020D01*
X106951995Y-85455020D01*
X106806415Y-85543027D01*
X106686127Y-85663315D01*
X106598120Y-85808895D01*
X106598120Y-85808896D01*
X106547514Y-85971298D01*
X106545498Y-85993489D01*
X106541100Y-86041884D01*
X106541100Y-87155116D01*
X106544598Y-87193614D01*
X106547514Y-87225701D01*
X106598120Y-87388103D01*
X106598120Y-87388104D01*
X106686127Y-87533684D01*
X106806415Y-87653972D01*
X106951995Y-87741979D01*
X107114398Y-87792585D01*
X107114401Y-87792585D01*
X107114404Y-87792586D01*
X107184984Y-87799000D01*
X108447569Y-87799000D01*
X108482217Y-87813352D01*
X109113148Y-88444283D01*
X109127500Y-88478931D01*
X109127500Y-92268500D01*
X109113148Y-92303148D01*
X109078500Y-92317500D01*
X109053724Y-92317500D01*
X109023301Y-92320353D01*
X109023300Y-92320353D01*
X108895123Y-92365204D01*
X108895114Y-92365208D01*
X108785849Y-92445849D01*
X108705208Y-92555114D01*
X108705204Y-92555123D01*
X108660355Y-92683296D01*
X108660353Y-92683301D01*
X108657500Y-92713724D01*
X108657500Y-93722275D01*
X108660353Y-93752697D01*
X108695561Y-93853316D01*
X108693458Y-93890760D01*
X108665495Y-93915750D01*
X108649311Y-93918500D01*
X108328031Y-93918500D01*
X108293383Y-93904148D01*
X108247941Y-93858706D01*
X108233589Y-93824058D01*
X108236339Y-93807874D01*
X108255645Y-93752702D01*
X108255645Y-93752701D01*
X108255646Y-93752699D01*
X108258500Y-93722266D01*
X108258500Y-92713734D01*
X108255646Y-92683301D01*
X108255645Y-92683296D01*
X108210795Y-92555123D01*
X108210791Y-92555114D01*
X108130150Y-92445849D01*
X108020885Y-92365208D01*
X108020876Y-92365204D01*
X107892698Y-92320353D01*
X107862275Y-92317500D01*
X107862266Y-92317500D01*
X107053734Y-92317500D01*
X107053724Y-92317500D01*
X107023301Y-92320353D01*
X107023300Y-92320353D01*
X106895123Y-92365204D01*
X106895114Y-92365208D01*
X106785849Y-92445849D01*
X106705207Y-92555115D01*
X106702864Y-92561813D01*
X106694861Y-92584683D01*
X106669874Y-92612647D01*
X106648612Y-92617500D01*
X106267388Y-92617500D01*
X106232740Y-92603148D01*
X106221138Y-92584684D01*
X106210793Y-92555118D01*
X106210792Y-92555115D01*
X106130150Y-92445849D01*
X106020885Y-92365208D01*
X106020876Y-92365204D01*
X105892698Y-92320353D01*
X105862275Y-92317500D01*
X105862266Y-92317500D01*
X105053734Y-92317500D01*
X105053724Y-92317500D01*
X105023301Y-92320353D01*
X105023300Y-92320353D01*
X104895123Y-92365204D01*
X104895114Y-92365208D01*
X104785849Y-92445849D01*
X104705208Y-92555114D01*
X104705204Y-92555123D01*
X104660355Y-92683296D01*
X104660353Y-92683301D01*
X104657500Y-92713724D01*
X104154931Y-92713724D01*
X104148088Y-92666751D01*
X104148088Y-92666750D01*
X104096787Y-92561813D01*
X104096784Y-92561809D01*
X104014190Y-92479215D01*
X104014185Y-92479211D01*
X103958000Y-92451743D01*
X103958000Y-92718000D01*
X102958000Y-92718000D01*
X102958000Y-92451743D01*
X102957999Y-92451743D01*
X102901814Y-92479211D01*
X102901809Y-92479215D01*
X102819215Y-92561809D01*
X102819213Y-92561813D01*
X102767912Y-92666750D01*
X102767912Y-92666751D01*
X102760445Y-92717999D01*
X99474838Y-92717999D01*
X99469618Y-92711196D01*
X99469607Y-92711184D01*
X99288815Y-92530392D01*
X99288803Y-92530381D01*
X99085977Y-92374747D01*
X99085962Y-92374737D01*
X98864535Y-92246896D01*
X98864536Y-92246896D01*
X98628314Y-92149050D01*
X98628308Y-92149048D01*
X98381351Y-92082876D01*
X98381344Y-92082875D01*
X98381340Y-92082874D01*
X98127843Y-92049500D01*
X97872157Y-92049500D01*
X97618660Y-92082874D01*
X97618656Y-92082874D01*
X97618648Y-92082876D01*
X97371691Y-92149048D01*
X97371685Y-92149050D01*
X97135463Y-92246896D01*
X96914037Y-92374737D01*
X96914022Y-92374747D01*
X96711196Y-92530381D01*
X96711184Y-92530392D01*
X96530392Y-92711184D01*
X96530381Y-92711196D01*
X96374747Y-92914022D01*
X96374737Y-92914037D01*
X96246896Y-93135463D01*
X96149050Y-93371685D01*
X96149048Y-93371691D01*
X96096330Y-93568438D01*
X96073500Y-93598191D01*
X96036318Y-93603086D01*
X96006565Y-93580256D01*
X96000000Y-93555756D01*
X96000000Y-91009845D01*
X97000001Y-91009845D01*
X97005802Y-91039018D01*
X97005804Y-91039022D01*
X97027904Y-91072097D01*
X97060980Y-91094197D01*
X97090153Y-91099999D01*
X97149999Y-91099999D01*
X98150000Y-91099999D01*
X98209845Y-91099999D01*
X98209845Y-91099998D01*
X98239018Y-91094197D01*
X98239022Y-91094195D01*
X98272097Y-91072095D01*
X98294197Y-91039019D01*
X98300000Y-91009845D01*
X98300000Y-90600000D01*
X98150000Y-90600000D01*
X98150000Y-91099999D01*
X97149999Y-91099999D01*
X97150000Y-91099998D01*
X97150000Y-90600000D01*
X97000001Y-90600000D01*
X97000001Y-91009845D01*
X96000000Y-91009845D01*
X96000000Y-89190154D01*
X97000000Y-89190154D01*
X97000000Y-89600000D01*
X97150000Y-89600000D01*
X98150000Y-89600000D01*
X98299999Y-89600000D01*
X98299999Y-89190155D01*
X98299998Y-89190147D01*
X98299452Y-89187404D01*
X98299452Y-89187403D01*
X98298030Y-89180252D01*
X100599500Y-89180252D01*
X100599500Y-91019748D01*
X100611133Y-91078231D01*
X100625678Y-91099999D01*
X100655447Y-91144552D01*
X100682012Y-91162301D01*
X100721769Y-91188867D01*
X100780252Y-91200500D01*
X100780255Y-91200500D01*
X101919745Y-91200500D01*
X101919748Y-91200500D01*
X101978231Y-91188867D01*
X102044552Y-91144552D01*
X102088867Y-91078231D01*
X102100500Y-91019748D01*
X102100500Y-89888543D01*
X103299500Y-89888543D01*
X103299500Y-90111457D01*
X103328596Y-90332463D01*
X103328597Y-90332467D01*
X103328598Y-90332474D01*
X103386288Y-90547776D01*
X103386290Y-90547782D01*
X103471595Y-90753727D01*
X103583050Y-90946771D01*
X103583060Y-90946786D01*
X103718748Y-91123618D01*
X103718758Y-91123630D01*
X103876369Y-91281241D01*
X103876381Y-91281251D01*
X104053213Y-91416939D01*
X104053222Y-91416945D01*
X104053226Y-91416948D01*
X104246274Y-91528405D01*
X104452219Y-91613710D01*
X104452223Y-91613711D01*
X104667525Y-91671401D01*
X104667526Y-91671401D01*
X104667537Y-91671404D01*
X104888543Y-91700500D01*
X104888547Y-91700500D01*
X105111453Y-91700500D01*
X105111457Y-91700500D01*
X105332463Y-91671404D01*
X105547781Y-91613710D01*
X105753726Y-91528405D01*
X105946774Y-91416948D01*
X106123624Y-91281247D01*
X106281247Y-91123624D01*
X106382194Y-90992065D01*
X106416939Y-90946786D01*
X106416940Y-90946783D01*
X106416948Y-90946774D01*
X106528405Y-90753726D01*
X106613710Y-90547781D01*
X106671404Y-90332463D01*
X106700500Y-90111457D01*
X106700500Y-89888543D01*
X106671404Y-89667537D01*
X106613710Y-89452219D01*
X106528405Y-89246274D01*
X106521194Y-89233785D01*
X106433017Y-89081058D01*
X106416948Y-89053226D01*
X106416945Y-89053222D01*
X106416939Y-89053213D01*
X106281251Y-88876381D01*
X106281241Y-88876369D01*
X106123630Y-88718758D01*
X106123618Y-88718748D01*
X105946786Y-88583060D01*
X105946771Y-88583050D01*
X105753726Y-88471595D01*
X105753727Y-88471595D01*
X105547782Y-88386290D01*
X105547776Y-88386288D01*
X105332474Y-88328598D01*
X105332467Y-88328597D01*
X105332463Y-88328596D01*
X105111457Y-88299500D01*
X104888543Y-88299500D01*
X104667537Y-88328596D01*
X104667533Y-88328596D01*
X104667525Y-88328598D01*
X104452223Y-88386288D01*
X104452217Y-88386290D01*
X104246272Y-88471595D01*
X104053228Y-88583050D01*
X104053213Y-88583060D01*
X103876381Y-88718748D01*
X103876369Y-88718758D01*
X103718758Y-88876369D01*
X103718748Y-88876381D01*
X103583060Y-89053213D01*
X103583050Y-89053228D01*
X103471595Y-89246272D01*
X103386290Y-89452217D01*
X103386288Y-89452223D01*
X103328598Y-89667525D01*
X103328596Y-89667533D01*
X103328596Y-89667537D01*
X103299500Y-89888543D01*
X102100500Y-89888543D01*
X102100500Y-89180252D01*
X102088867Y-89121769D01*
X102059567Y-89077919D01*
X102044552Y-89055447D01*
X102004795Y-89028882D01*
X101978231Y-89011133D01*
X101919748Y-88999500D01*
X100780252Y-88999500D01*
X100721769Y-89011133D01*
X100655447Y-89055447D01*
X100611133Y-89121769D01*
X100599500Y-89180252D01*
X98298030Y-89180252D01*
X98294197Y-89160981D01*
X98294195Y-89160977D01*
X98272095Y-89127902D01*
X98239019Y-89105802D01*
X98209846Y-89100000D01*
X98150000Y-89100000D01*
X98150000Y-89600000D01*
X97150000Y-89600000D01*
X97150000Y-89100000D01*
X97090155Y-89100000D01*
X97090154Y-89100001D01*
X97060981Y-89105802D01*
X97060977Y-89105804D01*
X97027902Y-89127904D01*
X97005802Y-89160980D01*
X97000000Y-89190154D01*
X96000000Y-89190154D01*
X96000000Y-82980252D01*
X96899500Y-82980252D01*
X96899500Y-84819748D01*
X96911133Y-84878231D01*
X96928882Y-84904795D01*
X96955447Y-84944552D01*
X96970575Y-84954660D01*
X97021769Y-84988867D01*
X97080252Y-85000500D01*
X97080255Y-85000500D01*
X98219745Y-85000500D01*
X98219748Y-85000500D01*
X98278231Y-84988867D01*
X98295988Y-84977001D01*
X98332768Y-84969684D01*
X98357859Y-84983095D01*
X98440074Y-85065310D01*
X98440080Y-85065315D01*
X99847764Y-86472999D01*
X99847769Y-86473005D01*
X99849480Y-86474716D01*
X99961284Y-86586520D01*
X99961287Y-86586521D01*
X99961290Y-86586524D01*
X100001726Y-86609869D01*
X100098213Y-86665575D01*
X100098212Y-86665575D01*
X100098216Y-86665577D01*
X100210019Y-86695534D01*
X100250942Y-86706500D01*
X100250943Y-86706500D01*
X102279930Y-86706500D01*
X102279946Y-86706501D01*
X102282943Y-86706501D01*
X102441059Y-86706501D01*
X102542875Y-86679218D01*
X102593785Y-86665577D01*
X102593786Y-86665576D01*
X102593790Y-86665575D01*
X102643892Y-86636646D01*
X102643892Y-86636645D01*
X102643904Y-86636639D01*
X102730716Y-86586520D01*
X102842520Y-86474716D01*
X102842520Y-86474714D01*
X102846549Y-86470686D01*
X102846552Y-86470681D01*
X104158734Y-85158499D01*
X107723705Y-85158499D01*
X108509493Y-85158499D01*
X108116600Y-84765606D01*
X107723705Y-85158499D01*
X104158734Y-85158499D01*
X105798054Y-83519180D01*
X106641600Y-83519180D01*
X106641600Y-84597818D01*
X106641601Y-84597820D01*
X106657043Y-84715130D01*
X106685107Y-84782884D01*
X106685108Y-84782884D01*
X107409494Y-84058500D01*
X107409493Y-84058499D01*
X108823706Y-84058499D01*
X108823706Y-84058500D01*
X109548090Y-84782884D01*
X109548091Y-84782884D01*
X109576155Y-84715132D01*
X109576156Y-84715128D01*
X109591599Y-84597819D01*
X109591599Y-83519181D01*
X109591598Y-83519179D01*
X109576156Y-83401869D01*
X109548091Y-83334114D01*
X109548090Y-83334114D01*
X108823706Y-84058499D01*
X107409493Y-84058499D01*
X106685108Y-83334114D01*
X106685107Y-83334114D01*
X106657043Y-83401869D01*
X106641600Y-83519180D01*
X105798054Y-83519180D01*
X106358734Y-82958500D01*
X107723706Y-82958500D01*
X108116600Y-83351394D01*
X108116601Y-83351394D01*
X108509493Y-82958500D01*
X107723706Y-82958500D01*
X106358734Y-82958500D01*
X106740310Y-82576924D01*
X106774957Y-82562573D01*
X106803820Y-82572534D01*
X106803879Y-82572439D01*
X106804326Y-82572709D01*
X106805180Y-82573004D01*
X106806416Y-82573973D01*
X106951995Y-82661979D01*
X107114398Y-82712585D01*
X107114401Y-82712585D01*
X107114404Y-82712586D01*
X107184984Y-82719000D01*
X107184990Y-82719000D01*
X109048210Y-82719000D01*
X109048216Y-82719000D01*
X109118796Y-82712586D01*
X109118798Y-82712585D01*
X109118801Y-82712585D01*
X109281203Y-82661979D01*
X109281204Y-82661979D01*
X109311830Y-82643465D01*
X109426785Y-82573972D01*
X109547072Y-82453685D01*
X109635078Y-82308106D01*
X109663486Y-82216940D01*
X109685685Y-82145701D01*
X109685685Y-82145698D01*
X109685686Y-82145696D01*
X109692100Y-82075116D01*
X109692100Y-80961884D01*
X109685686Y-80891304D01*
X109685685Y-80891301D01*
X109685685Y-80891298D01*
X109635079Y-80728896D01*
X109635079Y-80728895D01*
X109547072Y-80583315D01*
X109426784Y-80463027D01*
X109281204Y-80375020D01*
X109118801Y-80324414D01*
X109086714Y-80321498D01*
X109048216Y-80318000D01*
X107184984Y-80318000D01*
X107149694Y-80321207D01*
X107114398Y-80324414D01*
X106951996Y-80375020D01*
X106951995Y-80375020D01*
X106806415Y-80463027D01*
X106686127Y-80583315D01*
X106598120Y-80728895D01*
X106598120Y-80728896D01*
X106547514Y-80891298D01*
X106541100Y-80961889D01*
X106541100Y-81057368D01*
X106526748Y-81092016D01*
X102127617Y-85491148D01*
X102092969Y-85505500D01*
X100599031Y-85505500D01*
X100564383Y-85491148D01*
X99420852Y-84347617D01*
X99406500Y-84312969D01*
X99406500Y-81887574D01*
X99420852Y-81852926D01*
X99426394Y-81848155D01*
X99494150Y-81798150D01*
X99494150Y-81798148D01*
X99494152Y-81798148D01*
X99574791Y-81688885D01*
X99574791Y-81688884D01*
X99574793Y-81688882D01*
X99619646Y-81560699D01*
X99622500Y-81530266D01*
X99622500Y-80521734D01*
X99622499Y-80521724D01*
X100021500Y-80521724D01*
X100021500Y-81530275D01*
X100024353Y-81560698D01*
X100024353Y-81560699D01*
X100069204Y-81688876D01*
X100069208Y-81688885D01*
X100149849Y-81798150D01*
X100259114Y-81878791D01*
X100259117Y-81878792D01*
X100259118Y-81878793D01*
X100259120Y-81878793D01*
X100259123Y-81878795D01*
X100387301Y-81923646D01*
X100417734Y-81926500D01*
X100700500Y-81926500D01*
X100735148Y-81940852D01*
X100749500Y-81975500D01*
X100749500Y-82766905D01*
X100735148Y-82801553D01*
X100725486Y-82808010D01*
X100725781Y-82808452D01*
X100655447Y-82855447D01*
X100615641Y-82915022D01*
X100611133Y-82921769D01*
X100599500Y-82980252D01*
X100599500Y-84819748D01*
X100611133Y-84878231D01*
X100628882Y-84904795D01*
X100655447Y-84944552D01*
X100670575Y-84954660D01*
X100721769Y-84988867D01*
X100780252Y-85000500D01*
X100780255Y-85000500D01*
X101919745Y-85000500D01*
X101919748Y-85000500D01*
X101978231Y-84988867D01*
X102044552Y-84944552D01*
X102088867Y-84878231D01*
X102100500Y-84819748D01*
X102100500Y-82980252D01*
X102088867Y-82921769D01*
X102048776Y-82861769D01*
X102044552Y-82855447D01*
X101974219Y-82808452D01*
X101975341Y-82806771D01*
X101954225Y-82785645D01*
X101950500Y-82766905D01*
X101950500Y-81637014D01*
X101950501Y-81637001D01*
X101950501Y-81474941D01*
X101933203Y-81410390D01*
X101909577Y-81322216D01*
X101909576Y-81322214D01*
X101909576Y-81322213D01*
X101830524Y-81185290D01*
X101830521Y-81185287D01*
X101830520Y-81185284D01*
X101636852Y-80991616D01*
X101622500Y-80956968D01*
X101622500Y-80521743D01*
X101622499Y-80521724D01*
X101621929Y-80515651D01*
X101619646Y-80491301D01*
X101604184Y-80447114D01*
X101574795Y-80363123D01*
X101574791Y-80363114D01*
X101494150Y-80253849D01*
X101442403Y-80215658D01*
X101423047Y-80183536D01*
X101422500Y-80176233D01*
X101422500Y-79787031D01*
X101436852Y-79752383D01*
X102767351Y-78421884D01*
X106541100Y-78421884D01*
X106541100Y-79535116D01*
X106544531Y-79572876D01*
X106547514Y-79605701D01*
X106598120Y-79768103D01*
X106598120Y-79768104D01*
X106686127Y-79913684D01*
X106806415Y-80033972D01*
X106951995Y-80121979D01*
X107114398Y-80172585D01*
X107114401Y-80172585D01*
X107114404Y-80172586D01*
X107184984Y-80179000D01*
X107184990Y-80179000D01*
X109048210Y-80179000D01*
X109048216Y-80179000D01*
X109118796Y-80172586D01*
X109118798Y-80172585D01*
X109118801Y-80172585D01*
X109281203Y-80121979D01*
X109281204Y-80121979D01*
X109281206Y-80121978D01*
X109426785Y-80033972D01*
X109547072Y-79913685D01*
X109635078Y-79768106D01*
X109636734Y-79762791D01*
X109685685Y-79605701D01*
X109685685Y-79605698D01*
X109685686Y-79605696D01*
X109692100Y-79535116D01*
X109692100Y-78421884D01*
X109685686Y-78351304D01*
X109685685Y-78351301D01*
X109685685Y-78351298D01*
X109635079Y-78188896D01*
X109635079Y-78188895D01*
X109547072Y-78043315D01*
X109426784Y-77923027D01*
X109281204Y-77835020D01*
X109118801Y-77784414D01*
X109086714Y-77781498D01*
X109048216Y-77778000D01*
X107184984Y-77778000D01*
X107149694Y-77781207D01*
X107114398Y-77784414D01*
X106951996Y-77835020D01*
X106951995Y-77835020D01*
X106806415Y-77923027D01*
X106686127Y-78043315D01*
X106598120Y-78188895D01*
X106598120Y-78188896D01*
X106547514Y-78351298D01*
X106546392Y-78363648D01*
X106541100Y-78421884D01*
X102767351Y-78421884D01*
X105307351Y-75881884D01*
X106541100Y-75881884D01*
X106541100Y-76995116D01*
X106544598Y-77033614D01*
X106547514Y-77065701D01*
X106598120Y-77228103D01*
X106598120Y-77228104D01*
X106686127Y-77373684D01*
X106806415Y-77493972D01*
X106951995Y-77581979D01*
X107114398Y-77632585D01*
X107114401Y-77632585D01*
X107114404Y-77632586D01*
X107184984Y-77639000D01*
X107184990Y-77639000D01*
X109048210Y-77639000D01*
X109048216Y-77639000D01*
X109118796Y-77632586D01*
X109118798Y-77632585D01*
X109118801Y-77632585D01*
X109281203Y-77581979D01*
X109281204Y-77581979D01*
X109281206Y-77581978D01*
X109426785Y-77493972D01*
X109547072Y-77373685D01*
X109635078Y-77228106D01*
X109635079Y-77228103D01*
X109685685Y-77065701D01*
X109685685Y-77065698D01*
X109685686Y-77065696D01*
X109692100Y-76995116D01*
X109692100Y-75881884D01*
X109685686Y-75811304D01*
X109685685Y-75811300D01*
X109685685Y-75811298D01*
X109635079Y-75648896D01*
X109635079Y-75648895D01*
X109547072Y-75503315D01*
X109426784Y-75383027D01*
X109281204Y-75295020D01*
X109118801Y-75244414D01*
X109086714Y-75241498D01*
X109048216Y-75238000D01*
X107184984Y-75238000D01*
X107149694Y-75241207D01*
X107114398Y-75244414D01*
X106951996Y-75295020D01*
X106951995Y-75295020D01*
X106806415Y-75383027D01*
X106686127Y-75503315D01*
X106598120Y-75648895D01*
X106598120Y-75648896D01*
X106547514Y-75811298D01*
X106544015Y-75849802D01*
X106541100Y-75881884D01*
X105307351Y-75881884D01*
X105685920Y-75503315D01*
X106099870Y-75089365D01*
X106517822Y-74671412D01*
X106552469Y-74657061D01*
X106587117Y-74671413D01*
X106597153Y-74685954D01*
X106598120Y-74688103D01*
X106686127Y-74833684D01*
X106806415Y-74953972D01*
X106951995Y-75041979D01*
X107114398Y-75092585D01*
X107114401Y-75092585D01*
X107114404Y-75092586D01*
X107184984Y-75099000D01*
X107184990Y-75099000D01*
X109048210Y-75099000D01*
X109048216Y-75099000D01*
X109118796Y-75092586D01*
X109118798Y-75092585D01*
X109118801Y-75092585D01*
X109281203Y-75041979D01*
X109281204Y-75041979D01*
X109281206Y-75041978D01*
X109426785Y-74953972D01*
X109547072Y-74833685D01*
X109635078Y-74688106D01*
X109646322Y-74652023D01*
X109685685Y-74525701D01*
X109685685Y-74525698D01*
X109685686Y-74525696D01*
X109692100Y-74455116D01*
X109692100Y-73341884D01*
X109685686Y-73271304D01*
X109685685Y-73271300D01*
X109685685Y-73271298D01*
X109635079Y-73108896D01*
X109635079Y-73108895D01*
X109547072Y-72963315D01*
X109426784Y-72843027D01*
X109281204Y-72755020D01*
X109118801Y-72704414D01*
X109086714Y-72701498D01*
X109048216Y-72698000D01*
X107184984Y-72698000D01*
X107149694Y-72701207D01*
X107114398Y-72704414D01*
X106951996Y-72755020D01*
X106951995Y-72755020D01*
X106806415Y-72843027D01*
X106686127Y-72963315D01*
X106598120Y-73108895D01*
X106598120Y-73108896D01*
X106549921Y-73263577D01*
X106525912Y-73292387D01*
X106503140Y-73298000D01*
X106362439Y-73298000D01*
X106209716Y-73338922D01*
X106209713Y-73338923D01*
X106159798Y-73367743D01*
X106072790Y-73417975D01*
X106072781Y-73417982D01*
X105787384Y-73703380D01*
X104838739Y-74652026D01*
X100453286Y-79037478D01*
X100341481Y-79149283D01*
X100341480Y-79149283D01*
X100296447Y-79227284D01*
X100262423Y-79286212D01*
X100262422Y-79286216D01*
X100221499Y-79438940D01*
X100221499Y-79601000D01*
X100221500Y-79601013D01*
X100221500Y-80176233D01*
X100207148Y-80210881D01*
X100201597Y-80215658D01*
X100149849Y-80253849D01*
X100069208Y-80363114D01*
X100069204Y-80363123D01*
X100024353Y-80491300D01*
X100024353Y-80491301D01*
X100021500Y-80521724D01*
X99622499Y-80521724D01*
X99619646Y-80491301D01*
X99604184Y-80447114D01*
X99574795Y-80363123D01*
X99574791Y-80363114D01*
X99494150Y-80253849D01*
X99442403Y-80215658D01*
X99423047Y-80183536D01*
X99422500Y-80176233D01*
X99422500Y-77811765D01*
X99436852Y-77777117D01*
X99442393Y-77772347D01*
X99494150Y-77734150D01*
X99574793Y-77624882D01*
X99619646Y-77496699D01*
X99622500Y-77466266D01*
X99622500Y-76457734D01*
X99619646Y-76427301D01*
X99574793Y-76299118D01*
X99574792Y-76299117D01*
X99574791Y-76299114D01*
X99494150Y-76189849D01*
X99384885Y-76109208D01*
X99384876Y-76109204D01*
X99256698Y-76064353D01*
X99226275Y-76061500D01*
X99226266Y-76061500D01*
X98417734Y-76061500D01*
X98417724Y-76061500D01*
X98387301Y-76064353D01*
X98387300Y-76064353D01*
X98259123Y-76109204D01*
X98259114Y-76109208D01*
X98149849Y-76189849D01*
X98069208Y-76299114D01*
X98069204Y-76299123D01*
X98024353Y-76427300D01*
X98024353Y-76427301D01*
X98021500Y-76457724D01*
X98021500Y-77466275D01*
X98024353Y-77496698D01*
X98024353Y-77496699D01*
X98069204Y-77624876D01*
X98069208Y-77624885D01*
X98149845Y-77734144D01*
X98149847Y-77734146D01*
X98149850Y-77734150D01*
X98201598Y-77772341D01*
X98220953Y-77804461D01*
X98221500Y-77811765D01*
X98221500Y-80176233D01*
X98207148Y-80210881D01*
X98201597Y-80215658D01*
X98149849Y-80253849D01*
X98069208Y-80363114D01*
X98069204Y-80363123D01*
X98024353Y-80491300D01*
X98024353Y-80491301D01*
X98021500Y-80521724D01*
X98021500Y-81530275D01*
X98024353Y-81560698D01*
X98024353Y-81560699D01*
X98069204Y-81688876D01*
X98069208Y-81688885D01*
X98149848Y-81798149D01*
X98153393Y-81800765D01*
X98185596Y-81824531D01*
X98204953Y-81856653D01*
X98205500Y-81863957D01*
X98205500Y-82750500D01*
X98191148Y-82785148D01*
X98156500Y-82799500D01*
X97080252Y-82799500D01*
X97021769Y-82811133D01*
X96955447Y-82855447D01*
X96915641Y-82915022D01*
X96911133Y-82921769D01*
X96899500Y-82980252D01*
X96000000Y-82980252D01*
X96000000Y-75009845D01*
X97000001Y-75009845D01*
X97005802Y-75039018D01*
X97005804Y-75039022D01*
X97027904Y-75072097D01*
X97060980Y-75094197D01*
X97090153Y-75099999D01*
X97149999Y-75099999D01*
X98150000Y-75099999D01*
X98209845Y-75099999D01*
X98209845Y-75099998D01*
X98239018Y-75094197D01*
X98239022Y-75094195D01*
X98272097Y-75072095D01*
X98294197Y-75039019D01*
X98300000Y-75009845D01*
X98300000Y-74600000D01*
X98150000Y-74600000D01*
X98150000Y-75099999D01*
X97149999Y-75099999D01*
X97150000Y-75099998D01*
X97150000Y-74600000D01*
X97000001Y-74600000D01*
X97000001Y-75009845D01*
X96000000Y-75009845D01*
X96000000Y-73190154D01*
X97000000Y-73190154D01*
X97000000Y-73600000D01*
X97150000Y-73600000D01*
X98150000Y-73600000D01*
X98299999Y-73600000D01*
X98299999Y-73190155D01*
X98299998Y-73190154D01*
X98294197Y-73160981D01*
X98294195Y-73160977D01*
X98272095Y-73127902D01*
X98239019Y-73105802D01*
X98209846Y-73100000D01*
X98150000Y-73100000D01*
X98150000Y-73600000D01*
X97150000Y-73600000D01*
X97150000Y-73100000D01*
X97090155Y-73100000D01*
X97090154Y-73100001D01*
X97060981Y-73105802D01*
X97060977Y-73105804D01*
X97027902Y-73127904D01*
X97005802Y-73160980D01*
X97000000Y-73190154D01*
X96000000Y-73190154D01*
X96000000Y-69856940D01*
X98713499Y-69856940D01*
X98713499Y-70019000D01*
X98713500Y-70019013D01*
X98713500Y-74339929D01*
X98713499Y-74339947D01*
X98713499Y-74501059D01*
X98754421Y-74653781D01*
X98754422Y-74653783D01*
X98754423Y-74653785D01*
X98783360Y-74703904D01*
X98799125Y-74731211D01*
X98833477Y-74790712D01*
X98833482Y-74790718D01*
X98948074Y-74905310D01*
X98948080Y-74905315D01*
X100157207Y-76114442D01*
X100171559Y-76149090D01*
X100157207Y-76183738D01*
X100151663Y-76188510D01*
X100149851Y-76189847D01*
X100149849Y-76189849D01*
X100069208Y-76299114D01*
X100069204Y-76299123D01*
X100024353Y-76427300D01*
X100024353Y-76427301D01*
X100021500Y-76457724D01*
X100021500Y-77466275D01*
X100024353Y-77496698D01*
X100024353Y-77496699D01*
X100069204Y-77624876D01*
X100069208Y-77624885D01*
X100149849Y-77734150D01*
X100259114Y-77814791D01*
X100259117Y-77814792D01*
X100259118Y-77814793D01*
X100259120Y-77814793D01*
X100259123Y-77814795D01*
X100316929Y-77835022D01*
X100387301Y-77859646D01*
X100417734Y-77862500D01*
X100417744Y-77862500D01*
X101226256Y-77862500D01*
X101226266Y-77862500D01*
X101256699Y-77859646D01*
X101384882Y-77814793D01*
X101398882Y-77804461D01*
X101494150Y-77734150D01*
X101574791Y-77624885D01*
X101574791Y-77624884D01*
X101574793Y-77624882D01*
X101619646Y-77496699D01*
X101622500Y-77466266D01*
X101622500Y-76457734D01*
X101619646Y-76427301D01*
X101574793Y-76299118D01*
X101574792Y-76299117D01*
X101574791Y-76299114D01*
X101494150Y-76189849D01*
X101442403Y-76151658D01*
X101423047Y-76119536D01*
X101422500Y-76112233D01*
X101422500Y-75850941D01*
X101411879Y-75811305D01*
X101411879Y-75811304D01*
X101381578Y-75698217D01*
X101381577Y-75698216D01*
X101381577Y-75698215D01*
X101352639Y-75648095D01*
X101302520Y-75561284D01*
X101190716Y-75449480D01*
X101189010Y-75447774D01*
X101188999Y-75447764D01*
X101025383Y-75284148D01*
X101011031Y-75249500D01*
X101025383Y-75214852D01*
X101060031Y-75200500D01*
X101919745Y-75200500D01*
X101919748Y-75200500D01*
X101978231Y-75188867D01*
X102044552Y-75144552D01*
X102088867Y-75078231D01*
X102100500Y-75019748D01*
X102100500Y-73180252D01*
X102088867Y-73121769D01*
X102062301Y-73082012D01*
X102044552Y-73055447D01*
X102004795Y-73028882D01*
X101978231Y-73011133D01*
X101919748Y-72999500D01*
X100780252Y-72999500D01*
X100721769Y-73011133D01*
X100655447Y-73055447D01*
X100611133Y-73121769D01*
X100599500Y-73180252D01*
X100599500Y-73180255D01*
X100599500Y-74739969D01*
X100585148Y-74774617D01*
X100550500Y-74788969D01*
X100515852Y-74774617D01*
X99928852Y-74187617D01*
X99914500Y-74152969D01*
X99914500Y-70205031D01*
X99928852Y-70170383D01*
X100665852Y-69433383D01*
X100700500Y-69419031D01*
X100735148Y-69433383D01*
X100749500Y-69468031D01*
X100749500Y-69771929D01*
X100749499Y-69771947D01*
X100749499Y-69933059D01*
X100790421Y-70085781D01*
X100790422Y-70085783D01*
X100790423Y-70085785D01*
X100819360Y-70135904D01*
X100819361Y-70135905D01*
X100869477Y-70222712D01*
X100869482Y-70222718D01*
X100984074Y-70337310D01*
X100984080Y-70337315D01*
X102372264Y-71725499D01*
X102372269Y-71725505D01*
X102373980Y-71727216D01*
X102485784Y-71839020D01*
X102485787Y-71839021D01*
X102485790Y-71839024D01*
X102572590Y-71889137D01*
X102572593Y-71889138D01*
X102572595Y-71889139D01*
X102622715Y-71918077D01*
X102622717Y-71918077D01*
X102622718Y-71918078D01*
X102775438Y-71958999D01*
X102775439Y-71959000D01*
X102775442Y-71959000D01*
X102775443Y-71959000D01*
X106503140Y-71959000D01*
X106537788Y-71973352D01*
X106549921Y-71993423D01*
X106598120Y-72148103D01*
X106598120Y-72148104D01*
X106686127Y-72293684D01*
X106806415Y-72413972D01*
X106951995Y-72501979D01*
X107114398Y-72552585D01*
X107114401Y-72552585D01*
X107114404Y-72552586D01*
X107184984Y-72559000D01*
X107184990Y-72559000D01*
X109048210Y-72559000D01*
X109048216Y-72559000D01*
X109118796Y-72552586D01*
X109118798Y-72552585D01*
X109118801Y-72552585D01*
X109281203Y-72501979D01*
X109281204Y-72501979D01*
X109281206Y-72501978D01*
X109426785Y-72413972D01*
X109547072Y-72293685D01*
X109635078Y-72148106D01*
X109647756Y-72107420D01*
X109685685Y-71985701D01*
X109685685Y-71985698D01*
X109685686Y-71985696D01*
X109692100Y-71915116D01*
X109692100Y-70801884D01*
X109685686Y-70731304D01*
X109685685Y-70731301D01*
X109685685Y-70731298D01*
X109635079Y-70568896D01*
X109635079Y-70568895D01*
X109547072Y-70423315D01*
X109426784Y-70303027D01*
X109281204Y-70215020D01*
X109118801Y-70164414D01*
X109086714Y-70161498D01*
X109048216Y-70158000D01*
X107184984Y-70158000D01*
X107149694Y-70161207D01*
X107114398Y-70164414D01*
X106951996Y-70215020D01*
X106951995Y-70215020D01*
X106806415Y-70303027D01*
X106686127Y-70423315D01*
X106598120Y-70568895D01*
X106598120Y-70568896D01*
X106549921Y-70723577D01*
X106525912Y-70752387D01*
X106503140Y-70758000D01*
X103123531Y-70758000D01*
X103088883Y-70743648D01*
X101964852Y-69619617D01*
X101950500Y-69584969D01*
X101950500Y-69033094D01*
X101964852Y-68998446D01*
X101974513Y-68991990D01*
X101974218Y-68991548D01*
X101978230Y-68988867D01*
X101978231Y-68988867D01*
X102044552Y-68944552D01*
X102088867Y-68878231D01*
X102100500Y-68819748D01*
X102100500Y-67888543D01*
X103299500Y-67888543D01*
X103299500Y-68111457D01*
X103328596Y-68332463D01*
X103328597Y-68332467D01*
X103328598Y-68332474D01*
X103386288Y-68547776D01*
X103386290Y-68547782D01*
X103471595Y-68753727D01*
X103583050Y-68946771D01*
X103583060Y-68946786D01*
X103718748Y-69123618D01*
X103718758Y-69123630D01*
X103876369Y-69281241D01*
X103876381Y-69281251D01*
X104053213Y-69416939D01*
X104053222Y-69416945D01*
X104053226Y-69416948D01*
X104246274Y-69528405D01*
X104452219Y-69613710D01*
X104452223Y-69613711D01*
X104667525Y-69671401D01*
X104667526Y-69671401D01*
X104667537Y-69671404D01*
X104888543Y-69700500D01*
X104888547Y-69700500D01*
X105111453Y-69700500D01*
X105111457Y-69700500D01*
X105332463Y-69671404D01*
X105547781Y-69613710D01*
X105753726Y-69528405D01*
X105946774Y-69416948D01*
X106123624Y-69281247D01*
X106281247Y-69123624D01*
X106416948Y-68946774D01*
X106528405Y-68753726D01*
X106613710Y-68547781D01*
X106671404Y-68332463D01*
X106700500Y-68111457D01*
X106700500Y-67888543D01*
X106671404Y-67667537D01*
X106658563Y-67619615D01*
X106613711Y-67452223D01*
X106613709Y-67452217D01*
X106606236Y-67434174D01*
X106528405Y-67246274D01*
X106514148Y-67221581D01*
X106416949Y-67053228D01*
X106416938Y-67053213D01*
X106288869Y-66886307D01*
X106288863Y-66886301D01*
X106285740Y-66882231D01*
X106281247Y-66876376D01*
X106281245Y-66876374D01*
X106281241Y-66876369D01*
X106264552Y-66859680D01*
X110234499Y-66859680D01*
X110234499Y-67021740D01*
X110234500Y-67021753D01*
X110234500Y-79748557D01*
X110234499Y-79748575D01*
X110234499Y-79909687D01*
X110275421Y-80062409D01*
X110275423Y-80062415D01*
X110283565Y-80076516D01*
X110283568Y-80076520D01*
X110354480Y-80199344D01*
X110469074Y-80313938D01*
X110469080Y-80313943D01*
X112894148Y-82739011D01*
X112908500Y-82773659D01*
X112908500Y-85867929D01*
X112908499Y-85867947D01*
X112908499Y-86029059D01*
X112949421Y-86181781D01*
X112949423Y-86181787D01*
X112977132Y-86229779D01*
X112977137Y-86229785D01*
X113028477Y-86318712D01*
X113028482Y-86318718D01*
X113143074Y-86433310D01*
X113143080Y-86433315D01*
X113948239Y-87238474D01*
X113962591Y-87273122D01*
X113958861Y-87291873D01*
X113949870Y-87313578D01*
X113949870Y-87313579D01*
X113945982Y-87333125D01*
X113909500Y-87516535D01*
X113909500Y-87723465D01*
X113913183Y-87741979D01*
X113949869Y-87926417D01*
X113949871Y-87926423D01*
X114029058Y-88117596D01*
X114029059Y-88117598D01*
X114144023Y-88289655D01*
X114290345Y-88435977D01*
X114462402Y-88550941D01*
X114653580Y-88630130D01*
X114856535Y-88670500D01*
X114856538Y-88670500D01*
X115063462Y-88670500D01*
X115063465Y-88670500D01*
X115266420Y-88630130D01*
X115457598Y-88550941D01*
X115629655Y-88435977D01*
X115775977Y-88289655D01*
X115890941Y-88117598D01*
X115970130Y-87926420D01*
X116010500Y-87723465D01*
X116010500Y-87516535D01*
X115970130Y-87313580D01*
X115890941Y-87122402D01*
X115775977Y-86950345D01*
X115629655Y-86804023D01*
X115457598Y-86689059D01*
X115331041Y-86636637D01*
X115266423Y-86609871D01*
X115266417Y-86609869D01*
X115184572Y-86593589D01*
X115063465Y-86569500D01*
X115063462Y-86569500D01*
X114998031Y-86569500D01*
X114963383Y-86555148D01*
X114319658Y-85911423D01*
X114305306Y-85876775D01*
X114319658Y-85842127D01*
X114354306Y-85827775D01*
X114381529Y-85836033D01*
X114510009Y-85921880D01*
X114682887Y-85993489D01*
X114682906Y-85993494D01*
X114866427Y-86029999D01*
X114866434Y-86030000D01*
X115053567Y-86030000D01*
X115053572Y-86029999D01*
X115178118Y-86005225D01*
X115178118Y-86005224D01*
X114252893Y-85079999D01*
X115667106Y-85079999D01*
X115667106Y-85080000D01*
X115885224Y-85298118D01*
X115885225Y-85298118D01*
X115909999Y-85173572D01*
X115910000Y-85173567D01*
X115910000Y-84986436D01*
X115885224Y-84861880D01*
X115667106Y-85079999D01*
X114252893Y-85079999D01*
X114123852Y-84950958D01*
X114109500Y-84916310D01*
X114109500Y-84154774D01*
X114741881Y-84154774D01*
X114960000Y-84372893D01*
X114960001Y-84372893D01*
X115178118Y-84154775D01*
X115178117Y-84154774D01*
X115053564Y-84130000D01*
X114866436Y-84130000D01*
X114741881Y-84154774D01*
X114109500Y-84154774D01*
X114109500Y-83293428D01*
X114123852Y-83258780D01*
X114158500Y-83244428D01*
X114193148Y-83258780D01*
X114290345Y-83355977D01*
X114462402Y-83470941D01*
X114653580Y-83550130D01*
X114856535Y-83590500D01*
X114856538Y-83590500D01*
X115063462Y-83590500D01*
X115063465Y-83590500D01*
X115266420Y-83550130D01*
X115457598Y-83470941D01*
X115629655Y-83355977D01*
X115775977Y-83209655D01*
X115890941Y-83037598D01*
X115970130Y-82846420D01*
X116010500Y-82643465D01*
X116010500Y-82436535D01*
X115970130Y-82233580D01*
X115890941Y-82042402D01*
X115775977Y-81870345D01*
X115629655Y-81724023D01*
X115577062Y-81688882D01*
X115499416Y-81637001D01*
X115457598Y-81609059D01*
X115370260Y-81572882D01*
X115266423Y-81529871D01*
X115266417Y-81529869D01*
X115184572Y-81513589D01*
X115063465Y-81489500D01*
X114856535Y-81489500D01*
X114815105Y-81497740D01*
X114800646Y-81500616D01*
X114763864Y-81493298D01*
X114756440Y-81487205D01*
X112450852Y-79181617D01*
X112436500Y-79146969D01*
X112436500Y-68463779D01*
X112450852Y-68429131D01*
X112466749Y-68418509D01*
X112468412Y-68417819D01*
X112468417Y-68417819D01*
X112642125Y-68345867D01*
X112798458Y-68241408D01*
X112931408Y-68108458D01*
X113035867Y-67952125D01*
X113107819Y-67778417D01*
X113144500Y-67594010D01*
X113144500Y-67405990D01*
X113142633Y-67396602D01*
X113107821Y-67221592D01*
X113107818Y-67221581D01*
X113035867Y-67047875D01*
X112951605Y-66921769D01*
X112931410Y-66891544D01*
X112869014Y-66829148D01*
X112854662Y-66794500D01*
X112869014Y-66759852D01*
X112903662Y-66745500D01*
X113105969Y-66745500D01*
X113140617Y-66759852D01*
X113761148Y-67380383D01*
X113775500Y-67415031D01*
X113775500Y-67594015D01*
X113812178Y-67778407D01*
X113812181Y-67778418D01*
X113862583Y-67900099D01*
X113884133Y-67952125D01*
X113893354Y-67965925D01*
X113988589Y-68108455D01*
X114121544Y-68241410D01*
X114155121Y-68263845D01*
X114277875Y-68345867D01*
X114451583Y-68417819D01*
X114451589Y-68417820D01*
X114451592Y-68417821D01*
X114635984Y-68454499D01*
X114635987Y-68454499D01*
X114635990Y-68454500D01*
X114635991Y-68454500D01*
X114824009Y-68454500D01*
X114824010Y-68454500D01*
X115008417Y-68417819D01*
X115182125Y-68345867D01*
X115338458Y-68241408D01*
X115471408Y-68108458D01*
X115575867Y-67952125D01*
X115647819Y-67778417D01*
X115684500Y-67594010D01*
X115684500Y-67405990D01*
X115682633Y-67396602D01*
X115647821Y-67221592D01*
X115647818Y-67221581D01*
X115575867Y-67047875D01*
X115491605Y-66921769D01*
X115471410Y-66891544D01*
X115338455Y-66758589D01*
X115211711Y-66673902D01*
X115182125Y-66654133D01*
X115182122Y-66654131D01*
X115182121Y-66654131D01*
X115008418Y-66582181D01*
X115008407Y-66582178D01*
X114824015Y-66545500D01*
X114824010Y-66545500D01*
X114645031Y-66545500D01*
X114610383Y-66531148D01*
X113858315Y-65779080D01*
X113858313Y-65779077D01*
X113743718Y-65664482D01*
X113743712Y-65664477D01*
X113675770Y-65625252D01*
X113656904Y-65614360D01*
X113606785Y-65585423D01*
X113606784Y-65585422D01*
X113606783Y-65585422D01*
X113606781Y-65585421D01*
X113454060Y-65544499D01*
X113454057Y-65544499D01*
X113295943Y-65544499D01*
X113292946Y-65544499D01*
X113292930Y-65544500D01*
X111710810Y-65544500D01*
X111710794Y-65544499D01*
X111707797Y-65544499D01*
X111549683Y-65544499D01*
X111549680Y-65544499D01*
X111396958Y-65585421D01*
X111396952Y-65585423D01*
X111346835Y-65614360D01*
X111260023Y-65664480D01*
X111260023Y-65664481D01*
X110354482Y-66570021D01*
X110354477Y-66570027D01*
X110322441Y-66625519D01*
X110322440Y-66625520D01*
X110275423Y-66706952D01*
X110275421Y-66706958D01*
X110234499Y-66859680D01*
X106264552Y-66859680D01*
X106123630Y-66718758D01*
X106123618Y-66718748D01*
X105946786Y-66583060D01*
X105946771Y-66583050D01*
X105753726Y-66471595D01*
X105753727Y-66471595D01*
X105547782Y-66386290D01*
X105547776Y-66386288D01*
X105332474Y-66328598D01*
X105332467Y-66328597D01*
X105332463Y-66328596D01*
X105111457Y-66299500D01*
X104888543Y-66299500D01*
X104667537Y-66328596D01*
X104667533Y-66328596D01*
X104667525Y-66328598D01*
X104452223Y-66386288D01*
X104452217Y-66386290D01*
X104246272Y-66471595D01*
X104053228Y-66583050D01*
X104053213Y-66583060D01*
X103876381Y-66718748D01*
X103876369Y-66718758D01*
X103718758Y-66876369D01*
X103718748Y-66876381D01*
X103583060Y-67053213D01*
X103583050Y-67053228D01*
X103471595Y-67246272D01*
X103386290Y-67452217D01*
X103386288Y-67452223D01*
X103328598Y-67667525D01*
X103328596Y-67667533D01*
X103328596Y-67667537D01*
X103299500Y-67888543D01*
X102100500Y-67888543D01*
X102100500Y-66980252D01*
X102088867Y-66921769D01*
X102047380Y-66859680D01*
X102044552Y-66855447D01*
X102000879Y-66826266D01*
X101978231Y-66811133D01*
X101919748Y-66799500D01*
X100780252Y-66799500D01*
X100721769Y-66811133D01*
X100655447Y-66855447D01*
X100611281Y-66921548D01*
X100611133Y-66921769D01*
X100599500Y-66980252D01*
X100599500Y-66980255D01*
X100599500Y-67780968D01*
X100585148Y-67815616D01*
X98833482Y-69567281D01*
X98833477Y-69567287D01*
X98801767Y-69622214D01*
X98801766Y-69622215D01*
X98754423Y-69704212D01*
X98754422Y-69704216D01*
X98713499Y-69856940D01*
X96000000Y-69856940D01*
X96000000Y-66980252D01*
X96899500Y-66980252D01*
X96899500Y-68819748D01*
X96911133Y-68878231D01*
X96928882Y-68904795D01*
X96955447Y-68944552D01*
X96982012Y-68962301D01*
X97021769Y-68988867D01*
X97080252Y-69000500D01*
X97080255Y-69000500D01*
X98219745Y-69000500D01*
X98219748Y-69000500D01*
X98278231Y-68988867D01*
X98344552Y-68944552D01*
X98388867Y-68878231D01*
X98400500Y-68819748D01*
X98400500Y-66980252D01*
X98388867Y-66921769D01*
X98347380Y-66859680D01*
X98344552Y-66855447D01*
X98300879Y-66826266D01*
X98278231Y-66811133D01*
X98219748Y-66799500D01*
X97080252Y-66799500D01*
X97021769Y-66811133D01*
X96955447Y-66855447D01*
X96911281Y-66921548D01*
X96911133Y-66921769D01*
X96899500Y-66980252D01*
X96000000Y-66980252D01*
X96000000Y-64444243D01*
X96014352Y-64409595D01*
X96049000Y-64395243D01*
X96083648Y-64409595D01*
X96096330Y-64431561D01*
X96149048Y-64628308D01*
X96149050Y-64628314D01*
X96246896Y-64864536D01*
X96374737Y-65085962D01*
X96374747Y-65085977D01*
X96530381Y-65288803D01*
X96530392Y-65288815D01*
X96711184Y-65469607D01*
X96711196Y-65469618D01*
X96914022Y-65625252D01*
X96914031Y-65625258D01*
X96914035Y-65625261D01*
X97135465Y-65753104D01*
X97371687Y-65850950D01*
X97371691Y-65850951D01*
X97618648Y-65917123D01*
X97618649Y-65917123D01*
X97618660Y-65917126D01*
X97872157Y-65950500D01*
X97872160Y-65950500D01*
X98127839Y-65950500D01*
X98127843Y-65950500D01*
X98381340Y-65917126D01*
X98628313Y-65850950D01*
X98864535Y-65753104D01*
X99085965Y-65625261D01*
X99100170Y-65614361D01*
X99288803Y-65469618D01*
X99288805Y-65469615D01*
X99288813Y-65469610D01*
X99469610Y-65288813D01*
X99625261Y-65085965D01*
X99753104Y-64864535D01*
X99850950Y-64628313D01*
X99881622Y-64513845D01*
X113704001Y-64513845D01*
X113709802Y-64543018D01*
X113709804Y-64543022D01*
X113731904Y-64576097D01*
X113764980Y-64598197D01*
X113794154Y-64603999D01*
X114053999Y-64603999D01*
X115054000Y-64603999D01*
X115313845Y-64603999D01*
X115313845Y-64603998D01*
X115343018Y-64598197D01*
X115343022Y-64598195D01*
X115376097Y-64576095D01*
X115398197Y-64543019D01*
X115404000Y-64513845D01*
X115404000Y-64254000D01*
X115054000Y-64254000D01*
X115054000Y-64603999D01*
X114053999Y-64603999D01*
X114054000Y-64603998D01*
X114054000Y-64254000D01*
X113704001Y-64254000D01*
X113704001Y-64513845D01*
X99881622Y-64513845D01*
X99917126Y-64381340D01*
X99950500Y-64127843D01*
X99950500Y-63872157D01*
X99917126Y-63618660D01*
X99913400Y-63604756D01*
X99850951Y-63371691D01*
X99850949Y-63371685D01*
X99822820Y-63303774D01*
X99753104Y-63135465D01*
X99683956Y-63015698D01*
X99671517Y-62994154D01*
X113704000Y-62994154D01*
X113704000Y-63254000D01*
X114054000Y-63254000D01*
X115054000Y-63254000D01*
X115403999Y-63254000D01*
X115403999Y-62994155D01*
X115403998Y-62994154D01*
X115398197Y-62964981D01*
X115398195Y-62964977D01*
X115376095Y-62931902D01*
X115343019Y-62909802D01*
X115313846Y-62904000D01*
X115054000Y-62904000D01*
X115054000Y-63254000D01*
X114054000Y-63254000D01*
X114054000Y-62904000D01*
X113794155Y-62904000D01*
X113794154Y-62904001D01*
X113764981Y-62909802D01*
X113764977Y-62909804D01*
X113731902Y-62931904D01*
X113709802Y-62964980D01*
X113704000Y-62994154D01*
X99671517Y-62994154D01*
X99654672Y-62964977D01*
X99625261Y-62914035D01*
X99625256Y-62914028D01*
X99625252Y-62914022D01*
X99469618Y-62711196D01*
X99469607Y-62711184D01*
X99288815Y-62530392D01*
X99288803Y-62530381D01*
X99085977Y-62374747D01*
X99085962Y-62374737D01*
X98985749Y-62316879D01*
X98916424Y-62276854D01*
X120501900Y-62276854D01*
X120501900Y-62286700D01*
X120701900Y-62286700D01*
X121601900Y-62286700D01*
X121801899Y-62286700D01*
X121801899Y-62276855D01*
X121801898Y-62276854D01*
X126102100Y-62276854D01*
X126102100Y-62286700D01*
X126302100Y-62286700D01*
X127202100Y-62286700D01*
X127402099Y-62286700D01*
X127402099Y-62276855D01*
X127402098Y-62276854D01*
X127396297Y-62247681D01*
X127396295Y-62247677D01*
X127374195Y-62214602D01*
X127341119Y-62192502D01*
X127311946Y-62186700D01*
X127202100Y-62186700D01*
X127202100Y-62286700D01*
X126302100Y-62286700D01*
X126302100Y-62186700D01*
X126192255Y-62186700D01*
X126192254Y-62186701D01*
X126163081Y-62192502D01*
X126163077Y-62192504D01*
X126130002Y-62214604D01*
X126107902Y-62247680D01*
X126102100Y-62276854D01*
X121801898Y-62276854D01*
X121801898Y-62276853D01*
X121796097Y-62247681D01*
X121796095Y-62247677D01*
X121773995Y-62214602D01*
X121740919Y-62192502D01*
X121711746Y-62186700D01*
X121601900Y-62186700D01*
X121601900Y-62286700D01*
X120701900Y-62286700D01*
X120701900Y-62186700D01*
X120592055Y-62186700D01*
X120592054Y-62186701D01*
X120562881Y-62192502D01*
X120562877Y-62192504D01*
X120529802Y-62214604D01*
X120507702Y-62247680D01*
X120501900Y-62276854D01*
X98916424Y-62276854D01*
X98864535Y-62246896D01*
X98864536Y-62246896D01*
X98628314Y-62149050D01*
X98628308Y-62149048D01*
X98431562Y-62096330D01*
X98401809Y-62073500D01*
X98396914Y-62036318D01*
X98419744Y-62006565D01*
X98444244Y-62000000D01*
X133555756Y-62000000D01*
X133590404Y-62014352D01*
G37*
%TD.AperFunction*%
%TA.AperFunction,Conductor*%
G36*
X134593680Y-95875088D02*
G01*
X134616510Y-95904841D01*
X134611615Y-95942023D01*
X134603830Y-95952170D01*
X134570351Y-95985648D01*
X134535705Y-96000000D01*
X134444244Y-96000000D01*
X134409596Y-95985648D01*
X134395244Y-95951000D01*
X134409596Y-95916352D01*
X134431562Y-95903670D01*
X134556498Y-95870193D01*
X134593680Y-95875088D01*
G37*
%TD.AperFunction*%
%TA.AperFunction,Conductor*%
G36*
X135993435Y-94419743D02*
G01*
X136000000Y-94444243D01*
X136000000Y-94535703D01*
X135985648Y-94570351D01*
X135952171Y-94603828D01*
X135917523Y-94618180D01*
X135882875Y-94603828D01*
X135868523Y-94569180D01*
X135870193Y-94556498D01*
X135903670Y-94431561D01*
X135926500Y-94401808D01*
X135963682Y-94396913D01*
X135993435Y-94419743D01*
G37*
%TD.AperFunction*%
%TA.AperFunction,Conductor*%
G36*
X96083648Y-94409595D02*
G01*
X96096330Y-94431561D01*
X96129807Y-94556499D01*
X96124912Y-94593681D01*
X96095159Y-94616511D01*
X96057977Y-94611616D01*
X96047829Y-94603829D01*
X96014352Y-94570352D01*
X96000000Y-94535704D01*
X96000000Y-94444243D01*
X96014352Y-94409595D01*
X96049000Y-94395243D01*
X96083648Y-94409595D01*
G37*
%TD.AperFunction*%
%TA.AperFunction,Conductor*%
G36*
X135942022Y-63388383D02*
G01*
X135952170Y-63396170D01*
X135985648Y-63429648D01*
X136000000Y-63464296D01*
X136000000Y-63555756D01*
X135985648Y-63590404D01*
X135951000Y-63604756D01*
X135916352Y-63590404D01*
X135903670Y-63568438D01*
X135870192Y-63443500D01*
X135875087Y-63406318D01*
X135904840Y-63383488D01*
X135942022Y-63388383D01*
G37*
%TD.AperFunction*%
%TA.AperFunction,Conductor*%
G36*
X96117125Y-63396170D02*
G01*
X96131477Y-63430818D01*
X96129807Y-63443500D01*
X96096330Y-63568438D01*
X96073500Y-63598191D01*
X96036318Y-63603086D01*
X96006565Y-63580256D01*
X96000000Y-63555756D01*
X96000000Y-63464295D01*
X96014351Y-63429648D01*
X96047830Y-63396169D01*
X96082477Y-63381818D01*
X96117125Y-63396170D01*
G37*
%TD.AperFunction*%
%TA.AperFunction,Conductor*%
G36*
X97590405Y-62014352D02*
G01*
X97604757Y-62049000D01*
X97590405Y-62083648D01*
X97568439Y-62096330D01*
X97443500Y-62129807D01*
X97436935Y-62128942D01*
X97430817Y-62131477D01*
X97418998Y-62126581D01*
X97406318Y-62124912D01*
X97402287Y-62119659D01*
X97396169Y-62117125D01*
X97391273Y-62105305D01*
X97383488Y-62095159D01*
X97384352Y-62088594D01*
X97381818Y-62082476D01*
X97386713Y-62070657D01*
X97388383Y-62057977D01*
X97396163Y-62047836D01*
X97429649Y-62014350D01*
X97448446Y-62006565D01*
X97464296Y-62000000D01*
X97555757Y-62000000D01*
X97590405Y-62014352D01*
G37*
%TD.AperFunction*%
%TA.AperFunction,Conductor*%
G36*
X134570352Y-62014352D02*
G01*
X134603829Y-62047829D01*
X134618181Y-62082477D01*
X134603829Y-62117125D01*
X134569181Y-62131477D01*
X134556499Y-62129807D01*
X134431561Y-62096330D01*
X134401808Y-62073500D01*
X134396913Y-62036318D01*
X134419743Y-62006565D01*
X134444243Y-62000000D01*
X134535704Y-62000000D01*
X134570352Y-62014352D01*
G37*
%TD.AperFunction*%
%TD*%
M02*
